M48
; DRILL file KiCad 10.0.6 date 2026-09-13T11:19:04
; FORMAT={-:-/ absolute / metric / decimal}
; #@! TF.CreationDate,2026-09-13T11:19:04+02:00
; #@! TF.GenerationSoftware,Kicad,Pcbnew,10.0.6
; #@! TF.FileFunction,Plated,1,2,PTH
FMAT,2
METRIC
; #@! TA.AperFunction,Plated,PTH,ComponentDrill
T1C1.000
; #@! TA.AperFunction,Plated,PTH,ComponentDrill
T2C1.500
%
G90
G05
T1
X26.0Y-25.0
X28.54Y-25.0
X31.08Y-25.0
X33.62Y-25.0
X36.16Y-25.0
X38.7Y-25.0
X41.24Y-25.0
X43.78Y-25.0
T2
X39.715Y-36.985
X39.715Y-56.035
X39.715Y-75.085
X39.715Y-94.135
X46.065Y-34.445
X46.065Y-53.495
X46.065Y-72.545
X46.065Y-91.595
X58.765Y-36.985
X58.765Y-56.035
X58.765Y-75.085
X58.765Y-94.135
X65.115Y-34.445
X65.115Y-53.495
X65.115Y-72.545
X65.115Y-91.595
X77.815Y-36.985
X77.815Y-56.035
X77.815Y-75.085
X77.815Y-94.135
X84.165Y-34.445
X84.165Y-53.495
X84.165Y-72.545
X84.165Y-91.595
X96.865Y-36.985
X96.865Y-56.035
X96.865Y-75.085
X96.865Y-94.135
X103.215Y-34.445
X103.215Y-53.495
X103.215Y-72.545
X103.215Y-91.595
M30
