M48
; DRILL file KiCad 10.0.6 date 2026-09-13T11:19:04
; FORMAT={-:-/ absolute / metric / decimal}
; #@! TF.CreationDate,2026-09-13T11:19:04+02:00
; #@! TF.GenerationSoftware,Kicad,Pcbnew,10.0.6
; #@! TF.FileFunction,NonPlated,1,2,NPTH
FMAT,2
METRIC
; #@! TA.AperFunction,NonPlated,NPTH,ComponentDrill
T1C1.750
; #@! TA.AperFunction,NonPlated,NPTH,ComponentDrill
T2C2.200
; #@! TA.AperFunction,NonPlated,NPTH,ComponentDrill
T3C4.000
%
G90
G05
T1
X38.445Y-39.525
X38.445Y-58.575
X38.445Y-77.625
X38.445Y-96.675
X48.605Y-39.525
X48.605Y-58.575
X48.605Y-77.625
X48.605Y-96.675
X57.495Y-39.525
X57.495Y-58.575
X57.495Y-77.625
X57.495Y-96.675
X67.655Y-39.525
X67.655Y-58.575
X67.655Y-77.625
X67.655Y-96.675
X76.545Y-39.525
X76.545Y-58.575
X76.545Y-77.625
X76.545Y-96.675
X86.705Y-39.525
X86.705Y-58.575
X86.705Y-77.625
X86.705Y-96.675
X95.595Y-39.525
X95.595Y-58.575
X95.595Y-77.625
X95.595Y-96.675
X105.755Y-39.525
X105.755Y-58.575
X105.755Y-77.625
X105.755Y-96.675
T2
X23.0Y-23.0
X23.0Y-109.2
X113.2Y-23.0
X113.2Y-109.2
T3
X43.525Y-39.525
X43.525Y-58.575
X43.525Y-77.625
X43.525Y-96.675
X62.575Y-39.525
X62.575Y-58.575
X62.575Y-77.625
X62.575Y-96.675
X81.625Y-39.525
X81.625Y-58.575
X81.625Y-77.625
X81.625Y-96.675
X100.675Y-39.525
X100.675Y-58.575
X100.675Y-77.625
X100.675Y-96.675
M30
