G04 #@! TF.GenerationSoftware,KiCad,Pcbnew,10.0.6*
G04 #@! TF.CreationDate,2026-09-13T11:19:04+02:00*
G04 #@! TF.ProjectId,keypad4x4,6b657970-6164-4347-9834-2e6b69636164,rev?*
G04 #@! TF.SameCoordinates,Original*
G04 #@! TF.FileFunction,Legend,Bot*
G04 #@! TF.FilePolarity,Positive*
%FSLAX46Y46*%
G04 Gerber Fmt 4.6, Leading zero omitted, Abs format (unit mm)*
G04 Created by KiCad (PCBNEW 10.0.6) date 2026-09-13 11:19:04*
%MOMM*%
%LPD*%
G01*
G04 APERTURE LIST*
G04 Aperture macros list*
%AMRoundRect*
0 Rectangle with rounded corners*
0 $1 Rounding radius*
0 $2 $3 $4 $5 $6 $7 $8 $9 X,Y pos of 4 corners*
0 Add a 4 corners polygon primitive as box body*
4,1,4,$2,$3,$4,$5,$6,$7,$8,$9,$2,$3,0*
0 Add four circle primitives for the rounded corners*
1,1,$1+$1,$2,$3*
1,1,$1+$1,$4,$5*
1,1,$1+$1,$6,$7*
1,1,$1+$1,$8,$9*
0 Add four rect primitives between the rounded corners*
20,1,$1+$1,$2,$3,$4,$5,0*
20,1,$1+$1,$4,$5,$6,$7,0*
20,1,$1+$1,$6,$7,$8,$9,0*
20,1,$1+$1,$8,$9,$2,$3,0*%
G04 Aperture macros list end*
%ADD10C,0.120000*%
%ADD11C,0.200000*%
%ADD12C,2.500000*%
%ADD13C,4.000000*%
%ADD14C,1.750000*%
%ADD15RoundRect,0.240000X0.460000X-0.360000X0.460000X0.360000X-0.460000X0.360000X-0.460000X-0.360000X0*%
%ADD16C,2.200000*%
G04 APERTURE END LIST*
D10*
X43428855Y-44934524D02*
X42628855Y-44934524D01*
X42628855Y-44934524D02*
X42628855Y-45125000D01*
X42628855Y-45125000D02*
X42666950Y-45239286D01*
X42666950Y-45239286D02*
X42743140Y-45315476D01*
X42743140Y-45315476D02*
X42819331Y-45353571D01*
X42819331Y-45353571D02*
X42971712Y-45391667D01*
X42971712Y-45391667D02*
X43085998Y-45391667D01*
X43085998Y-45391667D02*
X43238379Y-45353571D01*
X43238379Y-45353571D02*
X43314569Y-45315476D01*
X43314569Y-45315476D02*
X43390760Y-45239286D01*
X43390760Y-45239286D02*
X43428855Y-45125000D01*
X43428855Y-45125000D02*
X43428855Y-44934524D01*
X43428855Y-46153571D02*
X43428855Y-45696428D01*
X43428855Y-45925000D02*
X42628855Y-45925000D01*
X42628855Y-45925000D02*
X42743140Y-45848809D01*
X42743140Y-45848809D02*
X42819331Y-45772619D01*
X42819331Y-45772619D02*
X42857426Y-45696428D01*
X62478855Y-44934524D02*
X61678855Y-44934524D01*
X61678855Y-44934524D02*
X61678855Y-45125000D01*
X61678855Y-45125000D02*
X61716950Y-45239286D01*
X61716950Y-45239286D02*
X61793140Y-45315476D01*
X61793140Y-45315476D02*
X61869331Y-45353571D01*
X61869331Y-45353571D02*
X62021712Y-45391667D01*
X62021712Y-45391667D02*
X62135998Y-45391667D01*
X62135998Y-45391667D02*
X62288379Y-45353571D01*
X62288379Y-45353571D02*
X62364569Y-45315476D01*
X62364569Y-45315476D02*
X62440760Y-45239286D01*
X62440760Y-45239286D02*
X62478855Y-45125000D01*
X62478855Y-45125000D02*
X62478855Y-44934524D01*
X61755045Y-45696428D02*
X61716950Y-45734524D01*
X61716950Y-45734524D02*
X61678855Y-45810714D01*
X61678855Y-45810714D02*
X61678855Y-46001190D01*
X61678855Y-46001190D02*
X61716950Y-46077381D01*
X61716950Y-46077381D02*
X61755045Y-46115476D01*
X61755045Y-46115476D02*
X61831236Y-46153571D01*
X61831236Y-46153571D02*
X61907426Y-46153571D01*
X61907426Y-46153571D02*
X62021712Y-46115476D01*
X62021712Y-46115476D02*
X62478855Y-45658333D01*
X62478855Y-45658333D02*
X62478855Y-46153571D01*
X81528855Y-44934524D02*
X80728855Y-44934524D01*
X80728855Y-44934524D02*
X80728855Y-45125000D01*
X80728855Y-45125000D02*
X80766950Y-45239286D01*
X80766950Y-45239286D02*
X80843140Y-45315476D01*
X80843140Y-45315476D02*
X80919331Y-45353571D01*
X80919331Y-45353571D02*
X81071712Y-45391667D01*
X81071712Y-45391667D02*
X81185998Y-45391667D01*
X81185998Y-45391667D02*
X81338379Y-45353571D01*
X81338379Y-45353571D02*
X81414569Y-45315476D01*
X81414569Y-45315476D02*
X81490760Y-45239286D01*
X81490760Y-45239286D02*
X81528855Y-45125000D01*
X81528855Y-45125000D02*
X81528855Y-44934524D01*
X80728855Y-45658333D02*
X80728855Y-46153571D01*
X80728855Y-46153571D02*
X81033617Y-45886905D01*
X81033617Y-45886905D02*
X81033617Y-46001190D01*
X81033617Y-46001190D02*
X81071712Y-46077381D01*
X81071712Y-46077381D02*
X81109807Y-46115476D01*
X81109807Y-46115476D02*
X81185998Y-46153571D01*
X81185998Y-46153571D02*
X81376474Y-46153571D01*
X81376474Y-46153571D02*
X81452664Y-46115476D01*
X81452664Y-46115476D02*
X81490760Y-46077381D01*
X81490760Y-46077381D02*
X81528855Y-46001190D01*
X81528855Y-46001190D02*
X81528855Y-45772619D01*
X81528855Y-45772619D02*
X81490760Y-45696428D01*
X81490760Y-45696428D02*
X81452664Y-45658333D01*
X100578855Y-44934524D02*
X99778855Y-44934524D01*
X99778855Y-44934524D02*
X99778855Y-45125000D01*
X99778855Y-45125000D02*
X99816950Y-45239286D01*
X99816950Y-45239286D02*
X99893140Y-45315476D01*
X99893140Y-45315476D02*
X99969331Y-45353571D01*
X99969331Y-45353571D02*
X100121712Y-45391667D01*
X100121712Y-45391667D02*
X100235998Y-45391667D01*
X100235998Y-45391667D02*
X100388379Y-45353571D01*
X100388379Y-45353571D02*
X100464569Y-45315476D01*
X100464569Y-45315476D02*
X100540760Y-45239286D01*
X100540760Y-45239286D02*
X100578855Y-45125000D01*
X100578855Y-45125000D02*
X100578855Y-44934524D01*
X100045521Y-46077381D02*
X100578855Y-46077381D01*
X99740760Y-45886905D02*
X100312188Y-45696428D01*
X100312188Y-45696428D02*
X100312188Y-46191667D01*
X43428855Y-63984524D02*
X42628855Y-63984524D01*
X42628855Y-63984524D02*
X42628855Y-64175000D01*
X42628855Y-64175000D02*
X42666950Y-64289286D01*
X42666950Y-64289286D02*
X42743140Y-64365476D01*
X42743140Y-64365476D02*
X42819331Y-64403571D01*
X42819331Y-64403571D02*
X42971712Y-64441667D01*
X42971712Y-64441667D02*
X43085998Y-64441667D01*
X43085998Y-64441667D02*
X43238379Y-64403571D01*
X43238379Y-64403571D02*
X43314569Y-64365476D01*
X43314569Y-64365476D02*
X43390760Y-64289286D01*
X43390760Y-64289286D02*
X43428855Y-64175000D01*
X43428855Y-64175000D02*
X43428855Y-63984524D01*
X42628855Y-65165476D02*
X42628855Y-64784524D01*
X42628855Y-64784524D02*
X43009807Y-64746428D01*
X43009807Y-64746428D02*
X42971712Y-64784524D01*
X42971712Y-64784524D02*
X42933617Y-64860714D01*
X42933617Y-64860714D02*
X42933617Y-65051190D01*
X42933617Y-65051190D02*
X42971712Y-65127381D01*
X42971712Y-65127381D02*
X43009807Y-65165476D01*
X43009807Y-65165476D02*
X43085998Y-65203571D01*
X43085998Y-65203571D02*
X43276474Y-65203571D01*
X43276474Y-65203571D02*
X43352664Y-65165476D01*
X43352664Y-65165476D02*
X43390760Y-65127381D01*
X43390760Y-65127381D02*
X43428855Y-65051190D01*
X43428855Y-65051190D02*
X43428855Y-64860714D01*
X43428855Y-64860714D02*
X43390760Y-64784524D01*
X43390760Y-64784524D02*
X43352664Y-64746428D01*
X62478855Y-63984524D02*
X61678855Y-63984524D01*
X61678855Y-63984524D02*
X61678855Y-64175000D01*
X61678855Y-64175000D02*
X61716950Y-64289286D01*
X61716950Y-64289286D02*
X61793140Y-64365476D01*
X61793140Y-64365476D02*
X61869331Y-64403571D01*
X61869331Y-64403571D02*
X62021712Y-64441667D01*
X62021712Y-64441667D02*
X62135998Y-64441667D01*
X62135998Y-64441667D02*
X62288379Y-64403571D01*
X62288379Y-64403571D02*
X62364569Y-64365476D01*
X62364569Y-64365476D02*
X62440760Y-64289286D01*
X62440760Y-64289286D02*
X62478855Y-64175000D01*
X62478855Y-64175000D02*
X62478855Y-63984524D01*
X61678855Y-65127381D02*
X61678855Y-64975000D01*
X61678855Y-64975000D02*
X61716950Y-64898809D01*
X61716950Y-64898809D02*
X61755045Y-64860714D01*
X61755045Y-64860714D02*
X61869331Y-64784524D01*
X61869331Y-64784524D02*
X62021712Y-64746428D01*
X62021712Y-64746428D02*
X62326474Y-64746428D01*
X62326474Y-64746428D02*
X62402664Y-64784524D01*
X62402664Y-64784524D02*
X62440760Y-64822619D01*
X62440760Y-64822619D02*
X62478855Y-64898809D01*
X62478855Y-64898809D02*
X62478855Y-65051190D01*
X62478855Y-65051190D02*
X62440760Y-65127381D01*
X62440760Y-65127381D02*
X62402664Y-65165476D01*
X62402664Y-65165476D02*
X62326474Y-65203571D01*
X62326474Y-65203571D02*
X62135998Y-65203571D01*
X62135998Y-65203571D02*
X62059807Y-65165476D01*
X62059807Y-65165476D02*
X62021712Y-65127381D01*
X62021712Y-65127381D02*
X61983617Y-65051190D01*
X61983617Y-65051190D02*
X61983617Y-64898809D01*
X61983617Y-64898809D02*
X62021712Y-64822619D01*
X62021712Y-64822619D02*
X62059807Y-64784524D01*
X62059807Y-64784524D02*
X62135998Y-64746428D01*
X81528855Y-63984524D02*
X80728855Y-63984524D01*
X80728855Y-63984524D02*
X80728855Y-64175000D01*
X80728855Y-64175000D02*
X80766950Y-64289286D01*
X80766950Y-64289286D02*
X80843140Y-64365476D01*
X80843140Y-64365476D02*
X80919331Y-64403571D01*
X80919331Y-64403571D02*
X81071712Y-64441667D01*
X81071712Y-64441667D02*
X81185998Y-64441667D01*
X81185998Y-64441667D02*
X81338379Y-64403571D01*
X81338379Y-64403571D02*
X81414569Y-64365476D01*
X81414569Y-64365476D02*
X81490760Y-64289286D01*
X81490760Y-64289286D02*
X81528855Y-64175000D01*
X81528855Y-64175000D02*
X81528855Y-63984524D01*
X80728855Y-64708333D02*
X80728855Y-65241667D01*
X80728855Y-65241667D02*
X81528855Y-64898809D01*
X100578855Y-63984524D02*
X99778855Y-63984524D01*
X99778855Y-63984524D02*
X99778855Y-64175000D01*
X99778855Y-64175000D02*
X99816950Y-64289286D01*
X99816950Y-64289286D02*
X99893140Y-64365476D01*
X99893140Y-64365476D02*
X99969331Y-64403571D01*
X99969331Y-64403571D02*
X100121712Y-64441667D01*
X100121712Y-64441667D02*
X100235998Y-64441667D01*
X100235998Y-64441667D02*
X100388379Y-64403571D01*
X100388379Y-64403571D02*
X100464569Y-64365476D01*
X100464569Y-64365476D02*
X100540760Y-64289286D01*
X100540760Y-64289286D02*
X100578855Y-64175000D01*
X100578855Y-64175000D02*
X100578855Y-63984524D01*
X100121712Y-64898809D02*
X100083617Y-64822619D01*
X100083617Y-64822619D02*
X100045521Y-64784524D01*
X100045521Y-64784524D02*
X99969331Y-64746428D01*
X99969331Y-64746428D02*
X99931236Y-64746428D01*
X99931236Y-64746428D02*
X99855045Y-64784524D01*
X99855045Y-64784524D02*
X99816950Y-64822619D01*
X99816950Y-64822619D02*
X99778855Y-64898809D01*
X99778855Y-64898809D02*
X99778855Y-65051190D01*
X99778855Y-65051190D02*
X99816950Y-65127381D01*
X99816950Y-65127381D02*
X99855045Y-65165476D01*
X99855045Y-65165476D02*
X99931236Y-65203571D01*
X99931236Y-65203571D02*
X99969331Y-65203571D01*
X99969331Y-65203571D02*
X100045521Y-65165476D01*
X100045521Y-65165476D02*
X100083617Y-65127381D01*
X100083617Y-65127381D02*
X100121712Y-65051190D01*
X100121712Y-65051190D02*
X100121712Y-64898809D01*
X100121712Y-64898809D02*
X100159807Y-64822619D01*
X100159807Y-64822619D02*
X100197902Y-64784524D01*
X100197902Y-64784524D02*
X100274093Y-64746428D01*
X100274093Y-64746428D02*
X100426474Y-64746428D01*
X100426474Y-64746428D02*
X100502664Y-64784524D01*
X100502664Y-64784524D02*
X100540760Y-64822619D01*
X100540760Y-64822619D02*
X100578855Y-64898809D01*
X100578855Y-64898809D02*
X100578855Y-65051190D01*
X100578855Y-65051190D02*
X100540760Y-65127381D01*
X100540760Y-65127381D02*
X100502664Y-65165476D01*
X100502664Y-65165476D02*
X100426474Y-65203571D01*
X100426474Y-65203571D02*
X100274093Y-65203571D01*
X100274093Y-65203571D02*
X100197902Y-65165476D01*
X100197902Y-65165476D02*
X100159807Y-65127381D01*
X100159807Y-65127381D02*
X100121712Y-65051190D01*
X43428855Y-83034524D02*
X42628855Y-83034524D01*
X42628855Y-83034524D02*
X42628855Y-83225000D01*
X42628855Y-83225000D02*
X42666950Y-83339286D01*
X42666950Y-83339286D02*
X42743140Y-83415476D01*
X42743140Y-83415476D02*
X42819331Y-83453571D01*
X42819331Y-83453571D02*
X42971712Y-83491667D01*
X42971712Y-83491667D02*
X43085998Y-83491667D01*
X43085998Y-83491667D02*
X43238379Y-83453571D01*
X43238379Y-83453571D02*
X43314569Y-83415476D01*
X43314569Y-83415476D02*
X43390760Y-83339286D01*
X43390760Y-83339286D02*
X43428855Y-83225000D01*
X43428855Y-83225000D02*
X43428855Y-83034524D01*
X43428855Y-83872619D02*
X43428855Y-84025000D01*
X43428855Y-84025000D02*
X43390760Y-84101190D01*
X43390760Y-84101190D02*
X43352664Y-84139286D01*
X43352664Y-84139286D02*
X43238379Y-84215476D01*
X43238379Y-84215476D02*
X43085998Y-84253571D01*
X43085998Y-84253571D02*
X42781236Y-84253571D01*
X42781236Y-84253571D02*
X42705045Y-84215476D01*
X42705045Y-84215476D02*
X42666950Y-84177381D01*
X42666950Y-84177381D02*
X42628855Y-84101190D01*
X42628855Y-84101190D02*
X42628855Y-83948809D01*
X42628855Y-83948809D02*
X42666950Y-83872619D01*
X42666950Y-83872619D02*
X42705045Y-83834524D01*
X42705045Y-83834524D02*
X42781236Y-83796428D01*
X42781236Y-83796428D02*
X42971712Y-83796428D01*
X42971712Y-83796428D02*
X43047902Y-83834524D01*
X43047902Y-83834524D02*
X43085998Y-83872619D01*
X43085998Y-83872619D02*
X43124093Y-83948809D01*
X43124093Y-83948809D02*
X43124093Y-84101190D01*
X43124093Y-84101190D02*
X43085998Y-84177381D01*
X43085998Y-84177381D02*
X43047902Y-84215476D01*
X43047902Y-84215476D02*
X42971712Y-84253571D01*
X62478855Y-82653571D02*
X61678855Y-82653571D01*
X61678855Y-82653571D02*
X61678855Y-82844047D01*
X61678855Y-82844047D02*
X61716950Y-82958333D01*
X61716950Y-82958333D02*
X61793140Y-83034523D01*
X61793140Y-83034523D02*
X61869331Y-83072618D01*
X61869331Y-83072618D02*
X62021712Y-83110714D01*
X62021712Y-83110714D02*
X62135998Y-83110714D01*
X62135998Y-83110714D02*
X62288379Y-83072618D01*
X62288379Y-83072618D02*
X62364569Y-83034523D01*
X62364569Y-83034523D02*
X62440760Y-82958333D01*
X62440760Y-82958333D02*
X62478855Y-82844047D01*
X62478855Y-82844047D02*
X62478855Y-82653571D01*
X62478855Y-83872618D02*
X62478855Y-83415475D01*
X62478855Y-83644047D02*
X61678855Y-83644047D01*
X61678855Y-83644047D02*
X61793140Y-83567856D01*
X61793140Y-83567856D02*
X61869331Y-83491666D01*
X61869331Y-83491666D02*
X61907426Y-83415475D01*
X61678855Y-84367857D02*
X61678855Y-84444047D01*
X61678855Y-84444047D02*
X61716950Y-84520238D01*
X61716950Y-84520238D02*
X61755045Y-84558333D01*
X61755045Y-84558333D02*
X61831236Y-84596428D01*
X61831236Y-84596428D02*
X61983617Y-84634523D01*
X61983617Y-84634523D02*
X62174093Y-84634523D01*
X62174093Y-84634523D02*
X62326474Y-84596428D01*
X62326474Y-84596428D02*
X62402664Y-84558333D01*
X62402664Y-84558333D02*
X62440760Y-84520238D01*
X62440760Y-84520238D02*
X62478855Y-84444047D01*
X62478855Y-84444047D02*
X62478855Y-84367857D01*
X62478855Y-84367857D02*
X62440760Y-84291666D01*
X62440760Y-84291666D02*
X62402664Y-84253571D01*
X62402664Y-84253571D02*
X62326474Y-84215476D01*
X62326474Y-84215476D02*
X62174093Y-84177380D01*
X62174093Y-84177380D02*
X61983617Y-84177380D01*
X61983617Y-84177380D02*
X61831236Y-84215476D01*
X61831236Y-84215476D02*
X61755045Y-84253571D01*
X61755045Y-84253571D02*
X61716950Y-84291666D01*
X61716950Y-84291666D02*
X61678855Y-84367857D01*
X81528855Y-82653571D02*
X80728855Y-82653571D01*
X80728855Y-82653571D02*
X80728855Y-82844047D01*
X80728855Y-82844047D02*
X80766950Y-82958333D01*
X80766950Y-82958333D02*
X80843140Y-83034523D01*
X80843140Y-83034523D02*
X80919331Y-83072618D01*
X80919331Y-83072618D02*
X81071712Y-83110714D01*
X81071712Y-83110714D02*
X81185998Y-83110714D01*
X81185998Y-83110714D02*
X81338379Y-83072618D01*
X81338379Y-83072618D02*
X81414569Y-83034523D01*
X81414569Y-83034523D02*
X81490760Y-82958333D01*
X81490760Y-82958333D02*
X81528855Y-82844047D01*
X81528855Y-82844047D02*
X81528855Y-82653571D01*
X81528855Y-83872618D02*
X81528855Y-83415475D01*
X81528855Y-83644047D02*
X80728855Y-83644047D01*
X80728855Y-83644047D02*
X80843140Y-83567856D01*
X80843140Y-83567856D02*
X80919331Y-83491666D01*
X80919331Y-83491666D02*
X80957426Y-83415475D01*
X81528855Y-84634523D02*
X81528855Y-84177380D01*
X81528855Y-84405952D02*
X80728855Y-84405952D01*
X80728855Y-84405952D02*
X80843140Y-84329761D01*
X80843140Y-84329761D02*
X80919331Y-84253571D01*
X80919331Y-84253571D02*
X80957426Y-84177380D01*
X100578855Y-82653571D02*
X99778855Y-82653571D01*
X99778855Y-82653571D02*
X99778855Y-82844047D01*
X99778855Y-82844047D02*
X99816950Y-82958333D01*
X99816950Y-82958333D02*
X99893140Y-83034523D01*
X99893140Y-83034523D02*
X99969331Y-83072618D01*
X99969331Y-83072618D02*
X100121712Y-83110714D01*
X100121712Y-83110714D02*
X100235998Y-83110714D01*
X100235998Y-83110714D02*
X100388379Y-83072618D01*
X100388379Y-83072618D02*
X100464569Y-83034523D01*
X100464569Y-83034523D02*
X100540760Y-82958333D01*
X100540760Y-82958333D02*
X100578855Y-82844047D01*
X100578855Y-82844047D02*
X100578855Y-82653571D01*
X100578855Y-83872618D02*
X100578855Y-83415475D01*
X100578855Y-83644047D02*
X99778855Y-83644047D01*
X99778855Y-83644047D02*
X99893140Y-83567856D01*
X99893140Y-83567856D02*
X99969331Y-83491666D01*
X99969331Y-83491666D02*
X100007426Y-83415475D01*
X99855045Y-84177380D02*
X99816950Y-84215476D01*
X99816950Y-84215476D02*
X99778855Y-84291666D01*
X99778855Y-84291666D02*
X99778855Y-84482142D01*
X99778855Y-84482142D02*
X99816950Y-84558333D01*
X99816950Y-84558333D02*
X99855045Y-84596428D01*
X99855045Y-84596428D02*
X99931236Y-84634523D01*
X99931236Y-84634523D02*
X100007426Y-84634523D01*
X100007426Y-84634523D02*
X100121712Y-84596428D01*
X100121712Y-84596428D02*
X100578855Y-84139285D01*
X100578855Y-84139285D02*
X100578855Y-84634523D01*
X43428855Y-101703571D02*
X42628855Y-101703571D01*
X42628855Y-101703571D02*
X42628855Y-101894047D01*
X42628855Y-101894047D02*
X42666950Y-102008333D01*
X42666950Y-102008333D02*
X42743140Y-102084523D01*
X42743140Y-102084523D02*
X42819331Y-102122618D01*
X42819331Y-102122618D02*
X42971712Y-102160714D01*
X42971712Y-102160714D02*
X43085998Y-102160714D01*
X43085998Y-102160714D02*
X43238379Y-102122618D01*
X43238379Y-102122618D02*
X43314569Y-102084523D01*
X43314569Y-102084523D02*
X43390760Y-102008333D01*
X43390760Y-102008333D02*
X43428855Y-101894047D01*
X43428855Y-101894047D02*
X43428855Y-101703571D01*
X43428855Y-102922618D02*
X43428855Y-102465475D01*
X43428855Y-102694047D02*
X42628855Y-102694047D01*
X42628855Y-102694047D02*
X42743140Y-102617856D01*
X42743140Y-102617856D02*
X42819331Y-102541666D01*
X42819331Y-102541666D02*
X42857426Y-102465475D01*
X42628855Y-103189285D02*
X42628855Y-103684523D01*
X42628855Y-103684523D02*
X42933617Y-103417857D01*
X42933617Y-103417857D02*
X42933617Y-103532142D01*
X42933617Y-103532142D02*
X42971712Y-103608333D01*
X42971712Y-103608333D02*
X43009807Y-103646428D01*
X43009807Y-103646428D02*
X43085998Y-103684523D01*
X43085998Y-103684523D02*
X43276474Y-103684523D01*
X43276474Y-103684523D02*
X43352664Y-103646428D01*
X43352664Y-103646428D02*
X43390760Y-103608333D01*
X43390760Y-103608333D02*
X43428855Y-103532142D01*
X43428855Y-103532142D02*
X43428855Y-103303571D01*
X43428855Y-103303571D02*
X43390760Y-103227380D01*
X43390760Y-103227380D02*
X43352664Y-103189285D01*
X62478855Y-101703571D02*
X61678855Y-101703571D01*
X61678855Y-101703571D02*
X61678855Y-101894047D01*
X61678855Y-101894047D02*
X61716950Y-102008333D01*
X61716950Y-102008333D02*
X61793140Y-102084523D01*
X61793140Y-102084523D02*
X61869331Y-102122618D01*
X61869331Y-102122618D02*
X62021712Y-102160714D01*
X62021712Y-102160714D02*
X62135998Y-102160714D01*
X62135998Y-102160714D02*
X62288379Y-102122618D01*
X62288379Y-102122618D02*
X62364569Y-102084523D01*
X62364569Y-102084523D02*
X62440760Y-102008333D01*
X62440760Y-102008333D02*
X62478855Y-101894047D01*
X62478855Y-101894047D02*
X62478855Y-101703571D01*
X62478855Y-102922618D02*
X62478855Y-102465475D01*
X62478855Y-102694047D02*
X61678855Y-102694047D01*
X61678855Y-102694047D02*
X61793140Y-102617856D01*
X61793140Y-102617856D02*
X61869331Y-102541666D01*
X61869331Y-102541666D02*
X61907426Y-102465475D01*
X61945521Y-103608333D02*
X62478855Y-103608333D01*
X61640760Y-103417857D02*
X62212188Y-103227380D01*
X62212188Y-103227380D02*
X62212188Y-103722619D01*
X81528855Y-101703571D02*
X80728855Y-101703571D01*
X80728855Y-101703571D02*
X80728855Y-101894047D01*
X80728855Y-101894047D02*
X80766950Y-102008333D01*
X80766950Y-102008333D02*
X80843140Y-102084523D01*
X80843140Y-102084523D02*
X80919331Y-102122618D01*
X80919331Y-102122618D02*
X81071712Y-102160714D01*
X81071712Y-102160714D02*
X81185998Y-102160714D01*
X81185998Y-102160714D02*
X81338379Y-102122618D01*
X81338379Y-102122618D02*
X81414569Y-102084523D01*
X81414569Y-102084523D02*
X81490760Y-102008333D01*
X81490760Y-102008333D02*
X81528855Y-101894047D01*
X81528855Y-101894047D02*
X81528855Y-101703571D01*
X81528855Y-102922618D02*
X81528855Y-102465475D01*
X81528855Y-102694047D02*
X80728855Y-102694047D01*
X80728855Y-102694047D02*
X80843140Y-102617856D01*
X80843140Y-102617856D02*
X80919331Y-102541666D01*
X80919331Y-102541666D02*
X80957426Y-102465475D01*
X80728855Y-103646428D02*
X80728855Y-103265476D01*
X80728855Y-103265476D02*
X81109807Y-103227380D01*
X81109807Y-103227380D02*
X81071712Y-103265476D01*
X81071712Y-103265476D02*
X81033617Y-103341666D01*
X81033617Y-103341666D02*
X81033617Y-103532142D01*
X81033617Y-103532142D02*
X81071712Y-103608333D01*
X81071712Y-103608333D02*
X81109807Y-103646428D01*
X81109807Y-103646428D02*
X81185998Y-103684523D01*
X81185998Y-103684523D02*
X81376474Y-103684523D01*
X81376474Y-103684523D02*
X81452664Y-103646428D01*
X81452664Y-103646428D02*
X81490760Y-103608333D01*
X81490760Y-103608333D02*
X81528855Y-103532142D01*
X81528855Y-103532142D02*
X81528855Y-103341666D01*
X81528855Y-103341666D02*
X81490760Y-103265476D01*
X81490760Y-103265476D02*
X81452664Y-103227380D01*
X100578855Y-101703571D02*
X99778855Y-101703571D01*
X99778855Y-101703571D02*
X99778855Y-101894047D01*
X99778855Y-101894047D02*
X99816950Y-102008333D01*
X99816950Y-102008333D02*
X99893140Y-102084523D01*
X99893140Y-102084523D02*
X99969331Y-102122618D01*
X99969331Y-102122618D02*
X100121712Y-102160714D01*
X100121712Y-102160714D02*
X100235998Y-102160714D01*
X100235998Y-102160714D02*
X100388379Y-102122618D01*
X100388379Y-102122618D02*
X100464569Y-102084523D01*
X100464569Y-102084523D02*
X100540760Y-102008333D01*
X100540760Y-102008333D02*
X100578855Y-101894047D01*
X100578855Y-101894047D02*
X100578855Y-101703571D01*
X100578855Y-102922618D02*
X100578855Y-102465475D01*
X100578855Y-102694047D02*
X99778855Y-102694047D01*
X99778855Y-102694047D02*
X99893140Y-102617856D01*
X99893140Y-102617856D02*
X99969331Y-102541666D01*
X99969331Y-102541666D02*
X100007426Y-102465475D01*
X99778855Y-103608333D02*
X99778855Y-103455952D01*
X99778855Y-103455952D02*
X99816950Y-103379761D01*
X99816950Y-103379761D02*
X99855045Y-103341666D01*
X99855045Y-103341666D02*
X99969331Y-103265476D01*
X99969331Y-103265476D02*
X100121712Y-103227380D01*
X100121712Y-103227380D02*
X100426474Y-103227380D01*
X100426474Y-103227380D02*
X100502664Y-103265476D01*
X100502664Y-103265476D02*
X100540760Y-103303571D01*
X100540760Y-103303571D02*
X100578855Y-103379761D01*
X100578855Y-103379761D02*
X100578855Y-103532142D01*
X100578855Y-103532142D02*
X100540760Y-103608333D01*
X100540760Y-103608333D02*
X100502664Y-103646428D01*
X100502664Y-103646428D02*
X100426474Y-103684523D01*
X100426474Y-103684523D02*
X100235998Y-103684523D01*
X100235998Y-103684523D02*
X100159807Y-103646428D01*
X100159807Y-103646428D02*
X100121712Y-103608333D01*
X100121712Y-103608333D02*
X100083617Y-103532142D01*
X100083617Y-103532142D02*
X100083617Y-103379761D01*
X100083617Y-103379761D02*
X100121712Y-103303571D01*
X100121712Y-103303571D02*
X100159807Y-103265476D01*
X100159807Y-103265476D02*
X100235998Y-103227380D01*
G04 #@! TO.C,D1*
D11*
X45165000Y-48225000D02*
X46965000Y-48225000D01*
G04 #@! TO.C,D2*
X64215000Y-48225000D02*
X66015000Y-48225000D01*
G04 #@! TO.C,D3*
X83265000Y-48225000D02*
X85065000Y-48225000D01*
G04 #@! TO.C,D4*
X102315000Y-48225000D02*
X104115000Y-48225000D01*
G04 #@! TO.C,D5*
X45165000Y-67275000D02*
X46965000Y-67275000D01*
G04 #@! TO.C,D6*
X64215000Y-67275000D02*
X66015000Y-67275000D01*
G04 #@! TO.C,D7*
X83265000Y-67275000D02*
X85065000Y-67275000D01*
G04 #@! TO.C,D8*
X102315000Y-67275000D02*
X104115000Y-67275000D01*
G04 #@! TO.C,D9*
X45165000Y-86325000D02*
X46965000Y-86325000D01*
G04 #@! TO.C,D10*
X64215000Y-86325000D02*
X66015000Y-86325000D01*
G04 #@! TO.C,D11*
X83265000Y-86325000D02*
X85065000Y-86325000D01*
G04 #@! TO.C,D12*
X102315000Y-86325000D02*
X104115000Y-86325000D01*
G04 #@! TO.C,D13*
X45165000Y-105375000D02*
X46965000Y-105375000D01*
G04 #@! TO.C,D14*
X64215000Y-105375000D02*
X66015000Y-105375000D01*
G04 #@! TO.C,D15*
X83265000Y-105375000D02*
X85065000Y-105375000D01*
G04 #@! TO.C,D16*
X102315000Y-105375000D02*
X104115000Y-105375000D01*
G04 #@! TD*
%LPC*%
D12*
G04 #@! TO.C,SW1*
X39715000Y-36985000D03*
X46065000Y-34445000D03*
D13*
X43525000Y-39525000D03*
D14*
X38445000Y-39525000D03*
X48605000Y-39525000D03*
G04 #@! TD*
D15*
G04 #@! TO.C,D1*
X46065000Y-47175000D03*
X46065000Y-43875000D03*
G04 #@! TD*
D12*
G04 #@! TO.C,SW2*
X58765000Y-36985000D03*
X65115000Y-34445000D03*
D13*
X62575000Y-39525000D03*
D14*
X57495000Y-39525000D03*
X67655000Y-39525000D03*
G04 #@! TD*
D15*
G04 #@! TO.C,D2*
X65115000Y-47175000D03*
X65115000Y-43875000D03*
G04 #@! TD*
D12*
G04 #@! TO.C,SW3*
X77815000Y-36985000D03*
X84165000Y-34445000D03*
D13*
X81625000Y-39525000D03*
D14*
X76545000Y-39525000D03*
X86705000Y-39525000D03*
G04 #@! TD*
D15*
G04 #@! TO.C,D3*
X84165000Y-47175000D03*
X84165000Y-43875000D03*
G04 #@! TD*
D12*
G04 #@! TO.C,SW4*
X96865000Y-36985000D03*
X103215000Y-34445000D03*
D13*
X100675000Y-39525000D03*
D14*
X95595000Y-39525000D03*
X105755000Y-39525000D03*
G04 #@! TD*
D15*
G04 #@! TO.C,D4*
X103215000Y-47175000D03*
X103215000Y-43875000D03*
G04 #@! TD*
D12*
G04 #@! TO.C,SW5*
X39715000Y-56035000D03*
X46065000Y-53495000D03*
D13*
X43525000Y-58575000D03*
D14*
X38445000Y-58575000D03*
X48605000Y-58575000D03*
G04 #@! TD*
D15*
G04 #@! TO.C,D5*
X46065000Y-66225000D03*
X46065000Y-62925000D03*
G04 #@! TD*
D12*
G04 #@! TO.C,SW6*
X58765000Y-56035000D03*
X65115000Y-53495000D03*
D13*
X62575000Y-58575000D03*
D14*
X57495000Y-58575000D03*
X67655000Y-58575000D03*
G04 #@! TD*
D15*
G04 #@! TO.C,D6*
X65115000Y-66225000D03*
X65115000Y-62925000D03*
G04 #@! TD*
D12*
G04 #@! TO.C,SW7*
X77815000Y-56035000D03*
X84165000Y-53495000D03*
D13*
X81625000Y-58575000D03*
D14*
X76545000Y-58575000D03*
X86705000Y-58575000D03*
G04 #@! TD*
D15*
G04 #@! TO.C,D7*
X84165000Y-66225000D03*
X84165000Y-62925000D03*
G04 #@! TD*
D12*
G04 #@! TO.C,SW8*
X96865000Y-56035000D03*
X103215000Y-53495000D03*
D13*
X100675000Y-58575000D03*
D14*
X95595000Y-58575000D03*
X105755000Y-58575000D03*
G04 #@! TD*
D15*
G04 #@! TO.C,D8*
X103215000Y-66225000D03*
X103215000Y-62925000D03*
G04 #@! TD*
D12*
G04 #@! TO.C,SW9*
X39715000Y-75085000D03*
X46065000Y-72545000D03*
D13*
X43525000Y-77625000D03*
D14*
X38445000Y-77625000D03*
X48605000Y-77625000D03*
G04 #@! TD*
D15*
G04 #@! TO.C,D9*
X46065000Y-85275000D03*
X46065000Y-81975000D03*
G04 #@! TD*
D12*
G04 #@! TO.C,SW10*
X58765000Y-75085000D03*
X65115000Y-72545000D03*
D13*
X62575000Y-77625000D03*
D14*
X57495000Y-77625000D03*
X67655000Y-77625000D03*
G04 #@! TD*
D15*
G04 #@! TO.C,D10*
X65115000Y-85275000D03*
X65115000Y-81975000D03*
G04 #@! TD*
D12*
G04 #@! TO.C,SW11*
X77815000Y-75085000D03*
X84165000Y-72545000D03*
D13*
X81625000Y-77625000D03*
D14*
X76545000Y-77625000D03*
X86705000Y-77625000D03*
G04 #@! TD*
D15*
G04 #@! TO.C,D11*
X84165000Y-85275000D03*
X84165000Y-81975000D03*
G04 #@! TD*
D12*
G04 #@! TO.C,SW12*
X96865000Y-75085000D03*
X103215000Y-72545000D03*
D13*
X100675000Y-77625000D03*
D14*
X95595000Y-77625000D03*
X105755000Y-77625000D03*
G04 #@! TD*
D15*
G04 #@! TO.C,D12*
X103215000Y-85275000D03*
X103215000Y-81975000D03*
G04 #@! TD*
D12*
G04 #@! TO.C,SW13*
X39715000Y-94135000D03*
X46065000Y-91595000D03*
D13*
X43525000Y-96675000D03*
D14*
X38445000Y-96675000D03*
X48605000Y-96675000D03*
G04 #@! TD*
D15*
G04 #@! TO.C,D13*
X46065000Y-104325000D03*
X46065000Y-101025000D03*
G04 #@! TD*
D12*
G04 #@! TO.C,SW14*
X58765000Y-94135000D03*
X65115000Y-91595000D03*
D13*
X62575000Y-96675000D03*
D14*
X57495000Y-96675000D03*
X67655000Y-96675000D03*
G04 #@! TD*
D15*
G04 #@! TO.C,D14*
X65115000Y-104325000D03*
X65115000Y-101025000D03*
G04 #@! TD*
D12*
G04 #@! TO.C,SW15*
X77815000Y-94135000D03*
X84165000Y-91595000D03*
D13*
X81625000Y-96675000D03*
D14*
X76545000Y-96675000D03*
X86705000Y-96675000D03*
G04 #@! TD*
D15*
G04 #@! TO.C,D15*
X84165000Y-104325000D03*
X84165000Y-101025000D03*
G04 #@! TD*
D12*
G04 #@! TO.C,SW16*
X96865000Y-94135000D03*
X103215000Y-91595000D03*
D13*
X100675000Y-96675000D03*
D14*
X95595000Y-96675000D03*
X105755000Y-96675000D03*
G04 #@! TD*
D15*
G04 #@! TO.C,D16*
X103215000Y-104325000D03*
X103215000Y-101025000D03*
G04 #@! TD*
D16*
G04 #@! TO.C,J4*
X33620000Y-25000000D03*
G04 #@! TD*
G04 #@! TO.C,J3*
X31080000Y-25000000D03*
G04 #@! TD*
G04 #@! TO.C,J2*
X28540000Y-25000000D03*
G04 #@! TD*
G04 #@! TO.C,J1*
X26000000Y-25000000D03*
G04 #@! TD*
G04 #@! TO.C,J5*
X36160000Y-25000000D03*
G04 #@! TD*
G04 #@! TO.C,J6*
X38700000Y-25000000D03*
G04 #@! TD*
G04 #@! TO.C,J7*
X41240000Y-25000000D03*
G04 #@! TD*
G04 #@! TO.C,J8*
X43780000Y-25000000D03*
G04 #@! TD*
G04 #@! TO.C,*
X23000000Y-23000000D03*
G04 #@! TD*
G04 #@! TO.C,*
X113200000Y-23000000D03*
G04 #@! TD*
G04 #@! TO.C,*
X23000000Y-109200000D03*
G04 #@! TD*
G04 #@! TO.C,*
X113200000Y-109200000D03*
G04 #@! TD*
%LPD*%
M02*
