G04 #@! TF.GenerationSoftware,KiCad,Pcbnew,10.0.6*
G04 #@! TF.CreationDate,2026-09-13T11:19:04+02:00*
G04 #@! TF.ProjectId,keypad4x4,6b657970-6164-4347-9834-2e6b69636164,rev?*
G04 #@! TF.SameCoordinates,Original*
G04 #@! TF.FileFunction,Legend,Top*
G04 #@! TF.FilePolarity,Positive*
%FSLAX46Y46*%
G04 Gerber Fmt 4.6, Leading zero omitted, Abs format (unit mm)*
G04 Created by KiCad (PCBNEW 10.0.6) date 2026-09-13 11:19:04*
%MOMM*%
%LPD*%
G01*
G04 APERTURE LIST*
%ADD10C,0.150000*%
%ADD11C,0.180000*%
%ADD12C,2.500000*%
%ADD13C,4.000000*%
%ADD14C,1.750000*%
%ADD15C,2.200000*%
G04 APERTURE END LIST*
D10*
X42191667Y-29432200D02*
X42334524Y-29479819D01*
X42334524Y-29479819D02*
X42572619Y-29479819D01*
X42572619Y-29479819D02*
X42667857Y-29432200D01*
X42667857Y-29432200D02*
X42715476Y-29384580D01*
X42715476Y-29384580D02*
X42763095Y-29289342D01*
X42763095Y-29289342D02*
X42763095Y-29194104D01*
X42763095Y-29194104D02*
X42715476Y-29098866D01*
X42715476Y-29098866D02*
X42667857Y-29051247D01*
X42667857Y-29051247D02*
X42572619Y-29003628D01*
X42572619Y-29003628D02*
X42382143Y-28956009D01*
X42382143Y-28956009D02*
X42286905Y-28908390D01*
X42286905Y-28908390D02*
X42239286Y-28860771D01*
X42239286Y-28860771D02*
X42191667Y-28765533D01*
X42191667Y-28765533D02*
X42191667Y-28670295D01*
X42191667Y-28670295D02*
X42239286Y-28575057D01*
X42239286Y-28575057D02*
X42286905Y-28527438D01*
X42286905Y-28527438D02*
X42382143Y-28479819D01*
X42382143Y-28479819D02*
X42620238Y-28479819D01*
X42620238Y-28479819D02*
X42763095Y-28527438D01*
X43096429Y-28479819D02*
X43334524Y-29479819D01*
X43334524Y-29479819D02*
X43525000Y-28765533D01*
X43525000Y-28765533D02*
X43715476Y-29479819D01*
X43715476Y-29479819D02*
X43953572Y-28479819D01*
X44858333Y-29479819D02*
X44286905Y-29479819D01*
X44572619Y-29479819D02*
X44572619Y-28479819D01*
X44572619Y-28479819D02*
X44477381Y-28622676D01*
X44477381Y-28622676D02*
X44382143Y-28717914D01*
X44382143Y-28717914D02*
X44286905Y-28765533D01*
X61241667Y-29432200D02*
X61384524Y-29479819D01*
X61384524Y-29479819D02*
X61622619Y-29479819D01*
X61622619Y-29479819D02*
X61717857Y-29432200D01*
X61717857Y-29432200D02*
X61765476Y-29384580D01*
X61765476Y-29384580D02*
X61813095Y-29289342D01*
X61813095Y-29289342D02*
X61813095Y-29194104D01*
X61813095Y-29194104D02*
X61765476Y-29098866D01*
X61765476Y-29098866D02*
X61717857Y-29051247D01*
X61717857Y-29051247D02*
X61622619Y-29003628D01*
X61622619Y-29003628D02*
X61432143Y-28956009D01*
X61432143Y-28956009D02*
X61336905Y-28908390D01*
X61336905Y-28908390D02*
X61289286Y-28860771D01*
X61289286Y-28860771D02*
X61241667Y-28765533D01*
X61241667Y-28765533D02*
X61241667Y-28670295D01*
X61241667Y-28670295D02*
X61289286Y-28575057D01*
X61289286Y-28575057D02*
X61336905Y-28527438D01*
X61336905Y-28527438D02*
X61432143Y-28479819D01*
X61432143Y-28479819D02*
X61670238Y-28479819D01*
X61670238Y-28479819D02*
X61813095Y-28527438D01*
X62146429Y-28479819D02*
X62384524Y-29479819D01*
X62384524Y-29479819D02*
X62575000Y-28765533D01*
X62575000Y-28765533D02*
X62765476Y-29479819D01*
X62765476Y-29479819D02*
X63003572Y-28479819D01*
X63336905Y-28575057D02*
X63384524Y-28527438D01*
X63384524Y-28527438D02*
X63479762Y-28479819D01*
X63479762Y-28479819D02*
X63717857Y-28479819D01*
X63717857Y-28479819D02*
X63813095Y-28527438D01*
X63813095Y-28527438D02*
X63860714Y-28575057D01*
X63860714Y-28575057D02*
X63908333Y-28670295D01*
X63908333Y-28670295D02*
X63908333Y-28765533D01*
X63908333Y-28765533D02*
X63860714Y-28908390D01*
X63860714Y-28908390D02*
X63289286Y-29479819D01*
X63289286Y-29479819D02*
X63908333Y-29479819D01*
X80291667Y-29432200D02*
X80434524Y-29479819D01*
X80434524Y-29479819D02*
X80672619Y-29479819D01*
X80672619Y-29479819D02*
X80767857Y-29432200D01*
X80767857Y-29432200D02*
X80815476Y-29384580D01*
X80815476Y-29384580D02*
X80863095Y-29289342D01*
X80863095Y-29289342D02*
X80863095Y-29194104D01*
X80863095Y-29194104D02*
X80815476Y-29098866D01*
X80815476Y-29098866D02*
X80767857Y-29051247D01*
X80767857Y-29051247D02*
X80672619Y-29003628D01*
X80672619Y-29003628D02*
X80482143Y-28956009D01*
X80482143Y-28956009D02*
X80386905Y-28908390D01*
X80386905Y-28908390D02*
X80339286Y-28860771D01*
X80339286Y-28860771D02*
X80291667Y-28765533D01*
X80291667Y-28765533D02*
X80291667Y-28670295D01*
X80291667Y-28670295D02*
X80339286Y-28575057D01*
X80339286Y-28575057D02*
X80386905Y-28527438D01*
X80386905Y-28527438D02*
X80482143Y-28479819D01*
X80482143Y-28479819D02*
X80720238Y-28479819D01*
X80720238Y-28479819D02*
X80863095Y-28527438D01*
X81196429Y-28479819D02*
X81434524Y-29479819D01*
X81434524Y-29479819D02*
X81625000Y-28765533D01*
X81625000Y-28765533D02*
X81815476Y-29479819D01*
X81815476Y-29479819D02*
X82053572Y-28479819D01*
X82339286Y-28479819D02*
X82958333Y-28479819D01*
X82958333Y-28479819D02*
X82625000Y-28860771D01*
X82625000Y-28860771D02*
X82767857Y-28860771D01*
X82767857Y-28860771D02*
X82863095Y-28908390D01*
X82863095Y-28908390D02*
X82910714Y-28956009D01*
X82910714Y-28956009D02*
X82958333Y-29051247D01*
X82958333Y-29051247D02*
X82958333Y-29289342D01*
X82958333Y-29289342D02*
X82910714Y-29384580D01*
X82910714Y-29384580D02*
X82863095Y-29432200D01*
X82863095Y-29432200D02*
X82767857Y-29479819D01*
X82767857Y-29479819D02*
X82482143Y-29479819D01*
X82482143Y-29479819D02*
X82386905Y-29432200D01*
X82386905Y-29432200D02*
X82339286Y-29384580D01*
X99341667Y-29432200D02*
X99484524Y-29479819D01*
X99484524Y-29479819D02*
X99722619Y-29479819D01*
X99722619Y-29479819D02*
X99817857Y-29432200D01*
X99817857Y-29432200D02*
X99865476Y-29384580D01*
X99865476Y-29384580D02*
X99913095Y-29289342D01*
X99913095Y-29289342D02*
X99913095Y-29194104D01*
X99913095Y-29194104D02*
X99865476Y-29098866D01*
X99865476Y-29098866D02*
X99817857Y-29051247D01*
X99817857Y-29051247D02*
X99722619Y-29003628D01*
X99722619Y-29003628D02*
X99532143Y-28956009D01*
X99532143Y-28956009D02*
X99436905Y-28908390D01*
X99436905Y-28908390D02*
X99389286Y-28860771D01*
X99389286Y-28860771D02*
X99341667Y-28765533D01*
X99341667Y-28765533D02*
X99341667Y-28670295D01*
X99341667Y-28670295D02*
X99389286Y-28575057D01*
X99389286Y-28575057D02*
X99436905Y-28527438D01*
X99436905Y-28527438D02*
X99532143Y-28479819D01*
X99532143Y-28479819D02*
X99770238Y-28479819D01*
X99770238Y-28479819D02*
X99913095Y-28527438D01*
X100246429Y-28479819D02*
X100484524Y-29479819D01*
X100484524Y-29479819D02*
X100675000Y-28765533D01*
X100675000Y-28765533D02*
X100865476Y-29479819D01*
X100865476Y-29479819D02*
X101103572Y-28479819D01*
X101913095Y-28813152D02*
X101913095Y-29479819D01*
X101675000Y-28432200D02*
X101436905Y-29146485D01*
X101436905Y-29146485D02*
X102055952Y-29146485D01*
X42191667Y-48482200D02*
X42334524Y-48529819D01*
X42334524Y-48529819D02*
X42572619Y-48529819D01*
X42572619Y-48529819D02*
X42667857Y-48482200D01*
X42667857Y-48482200D02*
X42715476Y-48434580D01*
X42715476Y-48434580D02*
X42763095Y-48339342D01*
X42763095Y-48339342D02*
X42763095Y-48244104D01*
X42763095Y-48244104D02*
X42715476Y-48148866D01*
X42715476Y-48148866D02*
X42667857Y-48101247D01*
X42667857Y-48101247D02*
X42572619Y-48053628D01*
X42572619Y-48053628D02*
X42382143Y-48006009D01*
X42382143Y-48006009D02*
X42286905Y-47958390D01*
X42286905Y-47958390D02*
X42239286Y-47910771D01*
X42239286Y-47910771D02*
X42191667Y-47815533D01*
X42191667Y-47815533D02*
X42191667Y-47720295D01*
X42191667Y-47720295D02*
X42239286Y-47625057D01*
X42239286Y-47625057D02*
X42286905Y-47577438D01*
X42286905Y-47577438D02*
X42382143Y-47529819D01*
X42382143Y-47529819D02*
X42620238Y-47529819D01*
X42620238Y-47529819D02*
X42763095Y-47577438D01*
X43096429Y-47529819D02*
X43334524Y-48529819D01*
X43334524Y-48529819D02*
X43525000Y-47815533D01*
X43525000Y-47815533D02*
X43715476Y-48529819D01*
X43715476Y-48529819D02*
X43953572Y-47529819D01*
X44810714Y-47529819D02*
X44334524Y-47529819D01*
X44334524Y-47529819D02*
X44286905Y-48006009D01*
X44286905Y-48006009D02*
X44334524Y-47958390D01*
X44334524Y-47958390D02*
X44429762Y-47910771D01*
X44429762Y-47910771D02*
X44667857Y-47910771D01*
X44667857Y-47910771D02*
X44763095Y-47958390D01*
X44763095Y-47958390D02*
X44810714Y-48006009D01*
X44810714Y-48006009D02*
X44858333Y-48101247D01*
X44858333Y-48101247D02*
X44858333Y-48339342D01*
X44858333Y-48339342D02*
X44810714Y-48434580D01*
X44810714Y-48434580D02*
X44763095Y-48482200D01*
X44763095Y-48482200D02*
X44667857Y-48529819D01*
X44667857Y-48529819D02*
X44429762Y-48529819D01*
X44429762Y-48529819D02*
X44334524Y-48482200D01*
X44334524Y-48482200D02*
X44286905Y-48434580D01*
X61241667Y-48482200D02*
X61384524Y-48529819D01*
X61384524Y-48529819D02*
X61622619Y-48529819D01*
X61622619Y-48529819D02*
X61717857Y-48482200D01*
X61717857Y-48482200D02*
X61765476Y-48434580D01*
X61765476Y-48434580D02*
X61813095Y-48339342D01*
X61813095Y-48339342D02*
X61813095Y-48244104D01*
X61813095Y-48244104D02*
X61765476Y-48148866D01*
X61765476Y-48148866D02*
X61717857Y-48101247D01*
X61717857Y-48101247D02*
X61622619Y-48053628D01*
X61622619Y-48053628D02*
X61432143Y-48006009D01*
X61432143Y-48006009D02*
X61336905Y-47958390D01*
X61336905Y-47958390D02*
X61289286Y-47910771D01*
X61289286Y-47910771D02*
X61241667Y-47815533D01*
X61241667Y-47815533D02*
X61241667Y-47720295D01*
X61241667Y-47720295D02*
X61289286Y-47625057D01*
X61289286Y-47625057D02*
X61336905Y-47577438D01*
X61336905Y-47577438D02*
X61432143Y-47529819D01*
X61432143Y-47529819D02*
X61670238Y-47529819D01*
X61670238Y-47529819D02*
X61813095Y-47577438D01*
X62146429Y-47529819D02*
X62384524Y-48529819D01*
X62384524Y-48529819D02*
X62575000Y-47815533D01*
X62575000Y-47815533D02*
X62765476Y-48529819D01*
X62765476Y-48529819D02*
X63003572Y-47529819D01*
X63813095Y-47529819D02*
X63622619Y-47529819D01*
X63622619Y-47529819D02*
X63527381Y-47577438D01*
X63527381Y-47577438D02*
X63479762Y-47625057D01*
X63479762Y-47625057D02*
X63384524Y-47767914D01*
X63384524Y-47767914D02*
X63336905Y-47958390D01*
X63336905Y-47958390D02*
X63336905Y-48339342D01*
X63336905Y-48339342D02*
X63384524Y-48434580D01*
X63384524Y-48434580D02*
X63432143Y-48482200D01*
X63432143Y-48482200D02*
X63527381Y-48529819D01*
X63527381Y-48529819D02*
X63717857Y-48529819D01*
X63717857Y-48529819D02*
X63813095Y-48482200D01*
X63813095Y-48482200D02*
X63860714Y-48434580D01*
X63860714Y-48434580D02*
X63908333Y-48339342D01*
X63908333Y-48339342D02*
X63908333Y-48101247D01*
X63908333Y-48101247D02*
X63860714Y-48006009D01*
X63860714Y-48006009D02*
X63813095Y-47958390D01*
X63813095Y-47958390D02*
X63717857Y-47910771D01*
X63717857Y-47910771D02*
X63527381Y-47910771D01*
X63527381Y-47910771D02*
X63432143Y-47958390D01*
X63432143Y-47958390D02*
X63384524Y-48006009D01*
X63384524Y-48006009D02*
X63336905Y-48101247D01*
X80291667Y-48482200D02*
X80434524Y-48529819D01*
X80434524Y-48529819D02*
X80672619Y-48529819D01*
X80672619Y-48529819D02*
X80767857Y-48482200D01*
X80767857Y-48482200D02*
X80815476Y-48434580D01*
X80815476Y-48434580D02*
X80863095Y-48339342D01*
X80863095Y-48339342D02*
X80863095Y-48244104D01*
X80863095Y-48244104D02*
X80815476Y-48148866D01*
X80815476Y-48148866D02*
X80767857Y-48101247D01*
X80767857Y-48101247D02*
X80672619Y-48053628D01*
X80672619Y-48053628D02*
X80482143Y-48006009D01*
X80482143Y-48006009D02*
X80386905Y-47958390D01*
X80386905Y-47958390D02*
X80339286Y-47910771D01*
X80339286Y-47910771D02*
X80291667Y-47815533D01*
X80291667Y-47815533D02*
X80291667Y-47720295D01*
X80291667Y-47720295D02*
X80339286Y-47625057D01*
X80339286Y-47625057D02*
X80386905Y-47577438D01*
X80386905Y-47577438D02*
X80482143Y-47529819D01*
X80482143Y-47529819D02*
X80720238Y-47529819D01*
X80720238Y-47529819D02*
X80863095Y-47577438D01*
X81196429Y-47529819D02*
X81434524Y-48529819D01*
X81434524Y-48529819D02*
X81625000Y-47815533D01*
X81625000Y-47815533D02*
X81815476Y-48529819D01*
X81815476Y-48529819D02*
X82053572Y-47529819D01*
X82339286Y-47529819D02*
X83005952Y-47529819D01*
X83005952Y-47529819D02*
X82577381Y-48529819D01*
X99341667Y-48482200D02*
X99484524Y-48529819D01*
X99484524Y-48529819D02*
X99722619Y-48529819D01*
X99722619Y-48529819D02*
X99817857Y-48482200D01*
X99817857Y-48482200D02*
X99865476Y-48434580D01*
X99865476Y-48434580D02*
X99913095Y-48339342D01*
X99913095Y-48339342D02*
X99913095Y-48244104D01*
X99913095Y-48244104D02*
X99865476Y-48148866D01*
X99865476Y-48148866D02*
X99817857Y-48101247D01*
X99817857Y-48101247D02*
X99722619Y-48053628D01*
X99722619Y-48053628D02*
X99532143Y-48006009D01*
X99532143Y-48006009D02*
X99436905Y-47958390D01*
X99436905Y-47958390D02*
X99389286Y-47910771D01*
X99389286Y-47910771D02*
X99341667Y-47815533D01*
X99341667Y-47815533D02*
X99341667Y-47720295D01*
X99341667Y-47720295D02*
X99389286Y-47625057D01*
X99389286Y-47625057D02*
X99436905Y-47577438D01*
X99436905Y-47577438D02*
X99532143Y-47529819D01*
X99532143Y-47529819D02*
X99770238Y-47529819D01*
X99770238Y-47529819D02*
X99913095Y-47577438D01*
X100246429Y-47529819D02*
X100484524Y-48529819D01*
X100484524Y-48529819D02*
X100675000Y-47815533D01*
X100675000Y-47815533D02*
X100865476Y-48529819D01*
X100865476Y-48529819D02*
X101103572Y-47529819D01*
X101627381Y-47958390D02*
X101532143Y-47910771D01*
X101532143Y-47910771D02*
X101484524Y-47863152D01*
X101484524Y-47863152D02*
X101436905Y-47767914D01*
X101436905Y-47767914D02*
X101436905Y-47720295D01*
X101436905Y-47720295D02*
X101484524Y-47625057D01*
X101484524Y-47625057D02*
X101532143Y-47577438D01*
X101532143Y-47577438D02*
X101627381Y-47529819D01*
X101627381Y-47529819D02*
X101817857Y-47529819D01*
X101817857Y-47529819D02*
X101913095Y-47577438D01*
X101913095Y-47577438D02*
X101960714Y-47625057D01*
X101960714Y-47625057D02*
X102008333Y-47720295D01*
X102008333Y-47720295D02*
X102008333Y-47767914D01*
X102008333Y-47767914D02*
X101960714Y-47863152D01*
X101960714Y-47863152D02*
X101913095Y-47910771D01*
X101913095Y-47910771D02*
X101817857Y-47958390D01*
X101817857Y-47958390D02*
X101627381Y-47958390D01*
X101627381Y-47958390D02*
X101532143Y-48006009D01*
X101532143Y-48006009D02*
X101484524Y-48053628D01*
X101484524Y-48053628D02*
X101436905Y-48148866D01*
X101436905Y-48148866D02*
X101436905Y-48339342D01*
X101436905Y-48339342D02*
X101484524Y-48434580D01*
X101484524Y-48434580D02*
X101532143Y-48482200D01*
X101532143Y-48482200D02*
X101627381Y-48529819D01*
X101627381Y-48529819D02*
X101817857Y-48529819D01*
X101817857Y-48529819D02*
X101913095Y-48482200D01*
X101913095Y-48482200D02*
X101960714Y-48434580D01*
X101960714Y-48434580D02*
X102008333Y-48339342D01*
X102008333Y-48339342D02*
X102008333Y-48148866D01*
X102008333Y-48148866D02*
X101960714Y-48053628D01*
X101960714Y-48053628D02*
X101913095Y-48006009D01*
X101913095Y-48006009D02*
X101817857Y-47958390D01*
X42191667Y-67532200D02*
X42334524Y-67579819D01*
X42334524Y-67579819D02*
X42572619Y-67579819D01*
X42572619Y-67579819D02*
X42667857Y-67532200D01*
X42667857Y-67532200D02*
X42715476Y-67484580D01*
X42715476Y-67484580D02*
X42763095Y-67389342D01*
X42763095Y-67389342D02*
X42763095Y-67294104D01*
X42763095Y-67294104D02*
X42715476Y-67198866D01*
X42715476Y-67198866D02*
X42667857Y-67151247D01*
X42667857Y-67151247D02*
X42572619Y-67103628D01*
X42572619Y-67103628D02*
X42382143Y-67056009D01*
X42382143Y-67056009D02*
X42286905Y-67008390D01*
X42286905Y-67008390D02*
X42239286Y-66960771D01*
X42239286Y-66960771D02*
X42191667Y-66865533D01*
X42191667Y-66865533D02*
X42191667Y-66770295D01*
X42191667Y-66770295D02*
X42239286Y-66675057D01*
X42239286Y-66675057D02*
X42286905Y-66627438D01*
X42286905Y-66627438D02*
X42382143Y-66579819D01*
X42382143Y-66579819D02*
X42620238Y-66579819D01*
X42620238Y-66579819D02*
X42763095Y-66627438D01*
X43096429Y-66579819D02*
X43334524Y-67579819D01*
X43334524Y-67579819D02*
X43525000Y-66865533D01*
X43525000Y-66865533D02*
X43715476Y-67579819D01*
X43715476Y-67579819D02*
X43953572Y-66579819D01*
X44382143Y-67579819D02*
X44572619Y-67579819D01*
X44572619Y-67579819D02*
X44667857Y-67532200D01*
X44667857Y-67532200D02*
X44715476Y-67484580D01*
X44715476Y-67484580D02*
X44810714Y-67341723D01*
X44810714Y-67341723D02*
X44858333Y-67151247D01*
X44858333Y-67151247D02*
X44858333Y-66770295D01*
X44858333Y-66770295D02*
X44810714Y-66675057D01*
X44810714Y-66675057D02*
X44763095Y-66627438D01*
X44763095Y-66627438D02*
X44667857Y-66579819D01*
X44667857Y-66579819D02*
X44477381Y-66579819D01*
X44477381Y-66579819D02*
X44382143Y-66627438D01*
X44382143Y-66627438D02*
X44334524Y-66675057D01*
X44334524Y-66675057D02*
X44286905Y-66770295D01*
X44286905Y-66770295D02*
X44286905Y-67008390D01*
X44286905Y-67008390D02*
X44334524Y-67103628D01*
X44334524Y-67103628D02*
X44382143Y-67151247D01*
X44382143Y-67151247D02*
X44477381Y-67198866D01*
X44477381Y-67198866D02*
X44667857Y-67198866D01*
X44667857Y-67198866D02*
X44763095Y-67151247D01*
X44763095Y-67151247D02*
X44810714Y-67103628D01*
X44810714Y-67103628D02*
X44858333Y-67008390D01*
X60765476Y-67532200D02*
X60908333Y-67579819D01*
X60908333Y-67579819D02*
X61146428Y-67579819D01*
X61146428Y-67579819D02*
X61241666Y-67532200D01*
X61241666Y-67532200D02*
X61289285Y-67484580D01*
X61289285Y-67484580D02*
X61336904Y-67389342D01*
X61336904Y-67389342D02*
X61336904Y-67294104D01*
X61336904Y-67294104D02*
X61289285Y-67198866D01*
X61289285Y-67198866D02*
X61241666Y-67151247D01*
X61241666Y-67151247D02*
X61146428Y-67103628D01*
X61146428Y-67103628D02*
X60955952Y-67056009D01*
X60955952Y-67056009D02*
X60860714Y-67008390D01*
X60860714Y-67008390D02*
X60813095Y-66960771D01*
X60813095Y-66960771D02*
X60765476Y-66865533D01*
X60765476Y-66865533D02*
X60765476Y-66770295D01*
X60765476Y-66770295D02*
X60813095Y-66675057D01*
X60813095Y-66675057D02*
X60860714Y-66627438D01*
X60860714Y-66627438D02*
X60955952Y-66579819D01*
X60955952Y-66579819D02*
X61194047Y-66579819D01*
X61194047Y-66579819D02*
X61336904Y-66627438D01*
X61670238Y-66579819D02*
X61908333Y-67579819D01*
X61908333Y-67579819D02*
X62098809Y-66865533D01*
X62098809Y-66865533D02*
X62289285Y-67579819D01*
X62289285Y-67579819D02*
X62527381Y-66579819D01*
X63432142Y-67579819D02*
X62860714Y-67579819D01*
X63146428Y-67579819D02*
X63146428Y-66579819D01*
X63146428Y-66579819D02*
X63051190Y-66722676D01*
X63051190Y-66722676D02*
X62955952Y-66817914D01*
X62955952Y-66817914D02*
X62860714Y-66865533D01*
X64051190Y-66579819D02*
X64146428Y-66579819D01*
X64146428Y-66579819D02*
X64241666Y-66627438D01*
X64241666Y-66627438D02*
X64289285Y-66675057D01*
X64289285Y-66675057D02*
X64336904Y-66770295D01*
X64336904Y-66770295D02*
X64384523Y-66960771D01*
X64384523Y-66960771D02*
X64384523Y-67198866D01*
X64384523Y-67198866D02*
X64336904Y-67389342D01*
X64336904Y-67389342D02*
X64289285Y-67484580D01*
X64289285Y-67484580D02*
X64241666Y-67532200D01*
X64241666Y-67532200D02*
X64146428Y-67579819D01*
X64146428Y-67579819D02*
X64051190Y-67579819D01*
X64051190Y-67579819D02*
X63955952Y-67532200D01*
X63955952Y-67532200D02*
X63908333Y-67484580D01*
X63908333Y-67484580D02*
X63860714Y-67389342D01*
X63860714Y-67389342D02*
X63813095Y-67198866D01*
X63813095Y-67198866D02*
X63813095Y-66960771D01*
X63813095Y-66960771D02*
X63860714Y-66770295D01*
X63860714Y-66770295D02*
X63908333Y-66675057D01*
X63908333Y-66675057D02*
X63955952Y-66627438D01*
X63955952Y-66627438D02*
X64051190Y-66579819D01*
X79815476Y-67532200D02*
X79958333Y-67579819D01*
X79958333Y-67579819D02*
X80196428Y-67579819D01*
X80196428Y-67579819D02*
X80291666Y-67532200D01*
X80291666Y-67532200D02*
X80339285Y-67484580D01*
X80339285Y-67484580D02*
X80386904Y-67389342D01*
X80386904Y-67389342D02*
X80386904Y-67294104D01*
X80386904Y-67294104D02*
X80339285Y-67198866D01*
X80339285Y-67198866D02*
X80291666Y-67151247D01*
X80291666Y-67151247D02*
X80196428Y-67103628D01*
X80196428Y-67103628D02*
X80005952Y-67056009D01*
X80005952Y-67056009D02*
X79910714Y-67008390D01*
X79910714Y-67008390D02*
X79863095Y-66960771D01*
X79863095Y-66960771D02*
X79815476Y-66865533D01*
X79815476Y-66865533D02*
X79815476Y-66770295D01*
X79815476Y-66770295D02*
X79863095Y-66675057D01*
X79863095Y-66675057D02*
X79910714Y-66627438D01*
X79910714Y-66627438D02*
X80005952Y-66579819D01*
X80005952Y-66579819D02*
X80244047Y-66579819D01*
X80244047Y-66579819D02*
X80386904Y-66627438D01*
X80720238Y-66579819D02*
X80958333Y-67579819D01*
X80958333Y-67579819D02*
X81148809Y-66865533D01*
X81148809Y-66865533D02*
X81339285Y-67579819D01*
X81339285Y-67579819D02*
X81577381Y-66579819D01*
X82482142Y-67579819D02*
X81910714Y-67579819D01*
X82196428Y-67579819D02*
X82196428Y-66579819D01*
X82196428Y-66579819D02*
X82101190Y-66722676D01*
X82101190Y-66722676D02*
X82005952Y-66817914D01*
X82005952Y-66817914D02*
X81910714Y-66865533D01*
X83434523Y-67579819D02*
X82863095Y-67579819D01*
X83148809Y-67579819D02*
X83148809Y-66579819D01*
X83148809Y-66579819D02*
X83053571Y-66722676D01*
X83053571Y-66722676D02*
X82958333Y-66817914D01*
X82958333Y-66817914D02*
X82863095Y-66865533D01*
X98865476Y-67532200D02*
X99008333Y-67579819D01*
X99008333Y-67579819D02*
X99246428Y-67579819D01*
X99246428Y-67579819D02*
X99341666Y-67532200D01*
X99341666Y-67532200D02*
X99389285Y-67484580D01*
X99389285Y-67484580D02*
X99436904Y-67389342D01*
X99436904Y-67389342D02*
X99436904Y-67294104D01*
X99436904Y-67294104D02*
X99389285Y-67198866D01*
X99389285Y-67198866D02*
X99341666Y-67151247D01*
X99341666Y-67151247D02*
X99246428Y-67103628D01*
X99246428Y-67103628D02*
X99055952Y-67056009D01*
X99055952Y-67056009D02*
X98960714Y-67008390D01*
X98960714Y-67008390D02*
X98913095Y-66960771D01*
X98913095Y-66960771D02*
X98865476Y-66865533D01*
X98865476Y-66865533D02*
X98865476Y-66770295D01*
X98865476Y-66770295D02*
X98913095Y-66675057D01*
X98913095Y-66675057D02*
X98960714Y-66627438D01*
X98960714Y-66627438D02*
X99055952Y-66579819D01*
X99055952Y-66579819D02*
X99294047Y-66579819D01*
X99294047Y-66579819D02*
X99436904Y-66627438D01*
X99770238Y-66579819D02*
X100008333Y-67579819D01*
X100008333Y-67579819D02*
X100198809Y-66865533D01*
X100198809Y-66865533D02*
X100389285Y-67579819D01*
X100389285Y-67579819D02*
X100627381Y-66579819D01*
X101532142Y-67579819D02*
X100960714Y-67579819D01*
X101246428Y-67579819D02*
X101246428Y-66579819D01*
X101246428Y-66579819D02*
X101151190Y-66722676D01*
X101151190Y-66722676D02*
X101055952Y-66817914D01*
X101055952Y-66817914D02*
X100960714Y-66865533D01*
X101913095Y-66675057D02*
X101960714Y-66627438D01*
X101960714Y-66627438D02*
X102055952Y-66579819D01*
X102055952Y-66579819D02*
X102294047Y-66579819D01*
X102294047Y-66579819D02*
X102389285Y-66627438D01*
X102389285Y-66627438D02*
X102436904Y-66675057D01*
X102436904Y-66675057D02*
X102484523Y-66770295D01*
X102484523Y-66770295D02*
X102484523Y-66865533D01*
X102484523Y-66865533D02*
X102436904Y-67008390D01*
X102436904Y-67008390D02*
X101865476Y-67579819D01*
X101865476Y-67579819D02*
X102484523Y-67579819D01*
X41715476Y-86582200D02*
X41858333Y-86629819D01*
X41858333Y-86629819D02*
X42096428Y-86629819D01*
X42096428Y-86629819D02*
X42191666Y-86582200D01*
X42191666Y-86582200D02*
X42239285Y-86534580D01*
X42239285Y-86534580D02*
X42286904Y-86439342D01*
X42286904Y-86439342D02*
X42286904Y-86344104D01*
X42286904Y-86344104D02*
X42239285Y-86248866D01*
X42239285Y-86248866D02*
X42191666Y-86201247D01*
X42191666Y-86201247D02*
X42096428Y-86153628D01*
X42096428Y-86153628D02*
X41905952Y-86106009D01*
X41905952Y-86106009D02*
X41810714Y-86058390D01*
X41810714Y-86058390D02*
X41763095Y-86010771D01*
X41763095Y-86010771D02*
X41715476Y-85915533D01*
X41715476Y-85915533D02*
X41715476Y-85820295D01*
X41715476Y-85820295D02*
X41763095Y-85725057D01*
X41763095Y-85725057D02*
X41810714Y-85677438D01*
X41810714Y-85677438D02*
X41905952Y-85629819D01*
X41905952Y-85629819D02*
X42144047Y-85629819D01*
X42144047Y-85629819D02*
X42286904Y-85677438D01*
X42620238Y-85629819D02*
X42858333Y-86629819D01*
X42858333Y-86629819D02*
X43048809Y-85915533D01*
X43048809Y-85915533D02*
X43239285Y-86629819D01*
X43239285Y-86629819D02*
X43477381Y-85629819D01*
X44382142Y-86629819D02*
X43810714Y-86629819D01*
X44096428Y-86629819D02*
X44096428Y-85629819D01*
X44096428Y-85629819D02*
X44001190Y-85772676D01*
X44001190Y-85772676D02*
X43905952Y-85867914D01*
X43905952Y-85867914D02*
X43810714Y-85915533D01*
X44715476Y-85629819D02*
X45334523Y-85629819D01*
X45334523Y-85629819D02*
X45001190Y-86010771D01*
X45001190Y-86010771D02*
X45144047Y-86010771D01*
X45144047Y-86010771D02*
X45239285Y-86058390D01*
X45239285Y-86058390D02*
X45286904Y-86106009D01*
X45286904Y-86106009D02*
X45334523Y-86201247D01*
X45334523Y-86201247D02*
X45334523Y-86439342D01*
X45334523Y-86439342D02*
X45286904Y-86534580D01*
X45286904Y-86534580D02*
X45239285Y-86582200D01*
X45239285Y-86582200D02*
X45144047Y-86629819D01*
X45144047Y-86629819D02*
X44858333Y-86629819D01*
X44858333Y-86629819D02*
X44763095Y-86582200D01*
X44763095Y-86582200D02*
X44715476Y-86534580D01*
X60765476Y-86582200D02*
X60908333Y-86629819D01*
X60908333Y-86629819D02*
X61146428Y-86629819D01*
X61146428Y-86629819D02*
X61241666Y-86582200D01*
X61241666Y-86582200D02*
X61289285Y-86534580D01*
X61289285Y-86534580D02*
X61336904Y-86439342D01*
X61336904Y-86439342D02*
X61336904Y-86344104D01*
X61336904Y-86344104D02*
X61289285Y-86248866D01*
X61289285Y-86248866D02*
X61241666Y-86201247D01*
X61241666Y-86201247D02*
X61146428Y-86153628D01*
X61146428Y-86153628D02*
X60955952Y-86106009D01*
X60955952Y-86106009D02*
X60860714Y-86058390D01*
X60860714Y-86058390D02*
X60813095Y-86010771D01*
X60813095Y-86010771D02*
X60765476Y-85915533D01*
X60765476Y-85915533D02*
X60765476Y-85820295D01*
X60765476Y-85820295D02*
X60813095Y-85725057D01*
X60813095Y-85725057D02*
X60860714Y-85677438D01*
X60860714Y-85677438D02*
X60955952Y-85629819D01*
X60955952Y-85629819D02*
X61194047Y-85629819D01*
X61194047Y-85629819D02*
X61336904Y-85677438D01*
X61670238Y-85629819D02*
X61908333Y-86629819D01*
X61908333Y-86629819D02*
X62098809Y-85915533D01*
X62098809Y-85915533D02*
X62289285Y-86629819D01*
X62289285Y-86629819D02*
X62527381Y-85629819D01*
X63432142Y-86629819D02*
X62860714Y-86629819D01*
X63146428Y-86629819D02*
X63146428Y-85629819D01*
X63146428Y-85629819D02*
X63051190Y-85772676D01*
X63051190Y-85772676D02*
X62955952Y-85867914D01*
X62955952Y-85867914D02*
X62860714Y-85915533D01*
X64289285Y-85963152D02*
X64289285Y-86629819D01*
X64051190Y-85582200D02*
X63813095Y-86296485D01*
X63813095Y-86296485D02*
X64432142Y-86296485D01*
X79815476Y-86582200D02*
X79958333Y-86629819D01*
X79958333Y-86629819D02*
X80196428Y-86629819D01*
X80196428Y-86629819D02*
X80291666Y-86582200D01*
X80291666Y-86582200D02*
X80339285Y-86534580D01*
X80339285Y-86534580D02*
X80386904Y-86439342D01*
X80386904Y-86439342D02*
X80386904Y-86344104D01*
X80386904Y-86344104D02*
X80339285Y-86248866D01*
X80339285Y-86248866D02*
X80291666Y-86201247D01*
X80291666Y-86201247D02*
X80196428Y-86153628D01*
X80196428Y-86153628D02*
X80005952Y-86106009D01*
X80005952Y-86106009D02*
X79910714Y-86058390D01*
X79910714Y-86058390D02*
X79863095Y-86010771D01*
X79863095Y-86010771D02*
X79815476Y-85915533D01*
X79815476Y-85915533D02*
X79815476Y-85820295D01*
X79815476Y-85820295D02*
X79863095Y-85725057D01*
X79863095Y-85725057D02*
X79910714Y-85677438D01*
X79910714Y-85677438D02*
X80005952Y-85629819D01*
X80005952Y-85629819D02*
X80244047Y-85629819D01*
X80244047Y-85629819D02*
X80386904Y-85677438D01*
X80720238Y-85629819D02*
X80958333Y-86629819D01*
X80958333Y-86629819D02*
X81148809Y-85915533D01*
X81148809Y-85915533D02*
X81339285Y-86629819D01*
X81339285Y-86629819D02*
X81577381Y-85629819D01*
X82482142Y-86629819D02*
X81910714Y-86629819D01*
X82196428Y-86629819D02*
X82196428Y-85629819D01*
X82196428Y-85629819D02*
X82101190Y-85772676D01*
X82101190Y-85772676D02*
X82005952Y-85867914D01*
X82005952Y-85867914D02*
X81910714Y-85915533D01*
X83386904Y-85629819D02*
X82910714Y-85629819D01*
X82910714Y-85629819D02*
X82863095Y-86106009D01*
X82863095Y-86106009D02*
X82910714Y-86058390D01*
X82910714Y-86058390D02*
X83005952Y-86010771D01*
X83005952Y-86010771D02*
X83244047Y-86010771D01*
X83244047Y-86010771D02*
X83339285Y-86058390D01*
X83339285Y-86058390D02*
X83386904Y-86106009D01*
X83386904Y-86106009D02*
X83434523Y-86201247D01*
X83434523Y-86201247D02*
X83434523Y-86439342D01*
X83434523Y-86439342D02*
X83386904Y-86534580D01*
X83386904Y-86534580D02*
X83339285Y-86582200D01*
X83339285Y-86582200D02*
X83244047Y-86629819D01*
X83244047Y-86629819D02*
X83005952Y-86629819D01*
X83005952Y-86629819D02*
X82910714Y-86582200D01*
X82910714Y-86582200D02*
X82863095Y-86534580D01*
X98865476Y-86582200D02*
X99008333Y-86629819D01*
X99008333Y-86629819D02*
X99246428Y-86629819D01*
X99246428Y-86629819D02*
X99341666Y-86582200D01*
X99341666Y-86582200D02*
X99389285Y-86534580D01*
X99389285Y-86534580D02*
X99436904Y-86439342D01*
X99436904Y-86439342D02*
X99436904Y-86344104D01*
X99436904Y-86344104D02*
X99389285Y-86248866D01*
X99389285Y-86248866D02*
X99341666Y-86201247D01*
X99341666Y-86201247D02*
X99246428Y-86153628D01*
X99246428Y-86153628D02*
X99055952Y-86106009D01*
X99055952Y-86106009D02*
X98960714Y-86058390D01*
X98960714Y-86058390D02*
X98913095Y-86010771D01*
X98913095Y-86010771D02*
X98865476Y-85915533D01*
X98865476Y-85915533D02*
X98865476Y-85820295D01*
X98865476Y-85820295D02*
X98913095Y-85725057D01*
X98913095Y-85725057D02*
X98960714Y-85677438D01*
X98960714Y-85677438D02*
X99055952Y-85629819D01*
X99055952Y-85629819D02*
X99294047Y-85629819D01*
X99294047Y-85629819D02*
X99436904Y-85677438D01*
X99770238Y-85629819D02*
X100008333Y-86629819D01*
X100008333Y-86629819D02*
X100198809Y-85915533D01*
X100198809Y-85915533D02*
X100389285Y-86629819D01*
X100389285Y-86629819D02*
X100627381Y-85629819D01*
X101532142Y-86629819D02*
X100960714Y-86629819D01*
X101246428Y-86629819D02*
X101246428Y-85629819D01*
X101246428Y-85629819D02*
X101151190Y-85772676D01*
X101151190Y-85772676D02*
X101055952Y-85867914D01*
X101055952Y-85867914D02*
X100960714Y-85915533D01*
X102389285Y-85629819D02*
X102198809Y-85629819D01*
X102198809Y-85629819D02*
X102103571Y-85677438D01*
X102103571Y-85677438D02*
X102055952Y-85725057D01*
X102055952Y-85725057D02*
X101960714Y-85867914D01*
X101960714Y-85867914D02*
X101913095Y-86058390D01*
X101913095Y-86058390D02*
X101913095Y-86439342D01*
X101913095Y-86439342D02*
X101960714Y-86534580D01*
X101960714Y-86534580D02*
X102008333Y-86582200D01*
X102008333Y-86582200D02*
X102103571Y-86629819D01*
X102103571Y-86629819D02*
X102294047Y-86629819D01*
X102294047Y-86629819D02*
X102389285Y-86582200D01*
X102389285Y-86582200D02*
X102436904Y-86534580D01*
X102436904Y-86534580D02*
X102484523Y-86439342D01*
X102484523Y-86439342D02*
X102484523Y-86201247D01*
X102484523Y-86201247D02*
X102436904Y-86106009D01*
X102436904Y-86106009D02*
X102389285Y-86058390D01*
X102389285Y-86058390D02*
X102294047Y-86010771D01*
X102294047Y-86010771D02*
X102103571Y-86010771D01*
X102103571Y-86010771D02*
X102008333Y-86058390D01*
X102008333Y-86058390D02*
X101960714Y-86106009D01*
X101960714Y-86106009D02*
X101913095Y-86201247D01*
D11*
X33436667Y-22499520D02*
X33070000Y-21975711D01*
X32808095Y-22499520D02*
X32808095Y-21399520D01*
X32808095Y-21399520D02*
X33227143Y-21399520D01*
X33227143Y-21399520D02*
X33331905Y-21451901D01*
X33331905Y-21451901D02*
X33384286Y-21504282D01*
X33384286Y-21504282D02*
X33436667Y-21609044D01*
X33436667Y-21609044D02*
X33436667Y-21766187D01*
X33436667Y-21766187D02*
X33384286Y-21870949D01*
X33384286Y-21870949D02*
X33331905Y-21923330D01*
X33331905Y-21923330D02*
X33227143Y-21975711D01*
X33227143Y-21975711D02*
X32808095Y-21975711D01*
X34117619Y-21399520D02*
X34222381Y-21399520D01*
X34222381Y-21399520D02*
X34327143Y-21451901D01*
X34327143Y-21451901D02*
X34379524Y-21504282D01*
X34379524Y-21504282D02*
X34431905Y-21609044D01*
X34431905Y-21609044D02*
X34484286Y-21818568D01*
X34484286Y-21818568D02*
X34484286Y-22080473D01*
X34484286Y-22080473D02*
X34431905Y-22289997D01*
X34431905Y-22289997D02*
X34379524Y-22394759D01*
X34379524Y-22394759D02*
X34327143Y-22447140D01*
X34327143Y-22447140D02*
X34222381Y-22499520D01*
X34222381Y-22499520D02*
X34117619Y-22499520D01*
X34117619Y-22499520D02*
X34012857Y-22447140D01*
X34012857Y-22447140D02*
X33960476Y-22394759D01*
X33960476Y-22394759D02*
X33908095Y-22289997D01*
X33908095Y-22289997D02*
X33855714Y-22080473D01*
X33855714Y-22080473D02*
X33855714Y-21818568D01*
X33855714Y-21818568D02*
X33908095Y-21609044D01*
X33908095Y-21609044D02*
X33960476Y-21504282D01*
X33960476Y-21504282D02*
X34012857Y-21451901D01*
X34012857Y-21451901D02*
X34117619Y-21399520D01*
X30896667Y-22499520D02*
X30530000Y-21975711D01*
X30268095Y-22499520D02*
X30268095Y-21399520D01*
X30268095Y-21399520D02*
X30687143Y-21399520D01*
X30687143Y-21399520D02*
X30791905Y-21451901D01*
X30791905Y-21451901D02*
X30844286Y-21504282D01*
X30844286Y-21504282D02*
X30896667Y-21609044D01*
X30896667Y-21609044D02*
X30896667Y-21766187D01*
X30896667Y-21766187D02*
X30844286Y-21870949D01*
X30844286Y-21870949D02*
X30791905Y-21923330D01*
X30791905Y-21923330D02*
X30687143Y-21975711D01*
X30687143Y-21975711D02*
X30268095Y-21975711D01*
X31944286Y-22499520D02*
X31315714Y-22499520D01*
X31630000Y-22499520D02*
X31630000Y-21399520D01*
X31630000Y-21399520D02*
X31525238Y-21556663D01*
X31525238Y-21556663D02*
X31420476Y-21661425D01*
X31420476Y-21661425D02*
X31315714Y-21713806D01*
X28356667Y-22499520D02*
X27990000Y-21975711D01*
X27728095Y-22499520D02*
X27728095Y-21399520D01*
X27728095Y-21399520D02*
X28147143Y-21399520D01*
X28147143Y-21399520D02*
X28251905Y-21451901D01*
X28251905Y-21451901D02*
X28304286Y-21504282D01*
X28304286Y-21504282D02*
X28356667Y-21609044D01*
X28356667Y-21609044D02*
X28356667Y-21766187D01*
X28356667Y-21766187D02*
X28304286Y-21870949D01*
X28304286Y-21870949D02*
X28251905Y-21923330D01*
X28251905Y-21923330D02*
X28147143Y-21975711D01*
X28147143Y-21975711D02*
X27728095Y-21975711D01*
X28775714Y-21504282D02*
X28828095Y-21451901D01*
X28828095Y-21451901D02*
X28932857Y-21399520D01*
X28932857Y-21399520D02*
X29194762Y-21399520D01*
X29194762Y-21399520D02*
X29299524Y-21451901D01*
X29299524Y-21451901D02*
X29351905Y-21504282D01*
X29351905Y-21504282D02*
X29404286Y-21609044D01*
X29404286Y-21609044D02*
X29404286Y-21713806D01*
X29404286Y-21713806D02*
X29351905Y-21870949D01*
X29351905Y-21870949D02*
X28723333Y-22499520D01*
X28723333Y-22499520D02*
X29404286Y-22499520D01*
X25816667Y-22499520D02*
X25450000Y-21975711D01*
X25188095Y-22499520D02*
X25188095Y-21399520D01*
X25188095Y-21399520D02*
X25607143Y-21399520D01*
X25607143Y-21399520D02*
X25711905Y-21451901D01*
X25711905Y-21451901D02*
X25764286Y-21504282D01*
X25764286Y-21504282D02*
X25816667Y-21609044D01*
X25816667Y-21609044D02*
X25816667Y-21766187D01*
X25816667Y-21766187D02*
X25764286Y-21870949D01*
X25764286Y-21870949D02*
X25711905Y-21923330D01*
X25711905Y-21923330D02*
X25607143Y-21975711D01*
X25607143Y-21975711D02*
X25188095Y-21975711D01*
X26183333Y-21399520D02*
X26864286Y-21399520D01*
X26864286Y-21399520D02*
X26497619Y-21818568D01*
X26497619Y-21818568D02*
X26654762Y-21818568D01*
X26654762Y-21818568D02*
X26759524Y-21870949D01*
X26759524Y-21870949D02*
X26811905Y-21923330D01*
X26811905Y-21923330D02*
X26864286Y-22028092D01*
X26864286Y-22028092D02*
X26864286Y-22289997D01*
X26864286Y-22289997D02*
X26811905Y-22394759D01*
X26811905Y-22394759D02*
X26759524Y-22447140D01*
X26759524Y-22447140D02*
X26654762Y-22499520D01*
X26654762Y-22499520D02*
X26340476Y-22499520D01*
X26340476Y-22499520D02*
X26235714Y-22447140D01*
X26235714Y-22447140D02*
X26183333Y-22394759D01*
X35976667Y-22394759D02*
X35924286Y-22447140D01*
X35924286Y-22447140D02*
X35767143Y-22499520D01*
X35767143Y-22499520D02*
X35662381Y-22499520D01*
X35662381Y-22499520D02*
X35505238Y-22447140D01*
X35505238Y-22447140D02*
X35400476Y-22342378D01*
X35400476Y-22342378D02*
X35348095Y-22237616D01*
X35348095Y-22237616D02*
X35295714Y-22028092D01*
X35295714Y-22028092D02*
X35295714Y-21870949D01*
X35295714Y-21870949D02*
X35348095Y-21661425D01*
X35348095Y-21661425D02*
X35400476Y-21556663D01*
X35400476Y-21556663D02*
X35505238Y-21451901D01*
X35505238Y-21451901D02*
X35662381Y-21399520D01*
X35662381Y-21399520D02*
X35767143Y-21399520D01*
X35767143Y-21399520D02*
X35924286Y-21451901D01*
X35924286Y-21451901D02*
X35976667Y-21504282D01*
X36657619Y-21399520D02*
X36762381Y-21399520D01*
X36762381Y-21399520D02*
X36867143Y-21451901D01*
X36867143Y-21451901D02*
X36919524Y-21504282D01*
X36919524Y-21504282D02*
X36971905Y-21609044D01*
X36971905Y-21609044D02*
X37024286Y-21818568D01*
X37024286Y-21818568D02*
X37024286Y-22080473D01*
X37024286Y-22080473D02*
X36971905Y-22289997D01*
X36971905Y-22289997D02*
X36919524Y-22394759D01*
X36919524Y-22394759D02*
X36867143Y-22447140D01*
X36867143Y-22447140D02*
X36762381Y-22499520D01*
X36762381Y-22499520D02*
X36657619Y-22499520D01*
X36657619Y-22499520D02*
X36552857Y-22447140D01*
X36552857Y-22447140D02*
X36500476Y-22394759D01*
X36500476Y-22394759D02*
X36448095Y-22289997D01*
X36448095Y-22289997D02*
X36395714Y-22080473D01*
X36395714Y-22080473D02*
X36395714Y-21818568D01*
X36395714Y-21818568D02*
X36448095Y-21609044D01*
X36448095Y-21609044D02*
X36500476Y-21504282D01*
X36500476Y-21504282D02*
X36552857Y-21451901D01*
X36552857Y-21451901D02*
X36657619Y-21399520D01*
X38516667Y-22394759D02*
X38464286Y-22447140D01*
X38464286Y-22447140D02*
X38307143Y-22499520D01*
X38307143Y-22499520D02*
X38202381Y-22499520D01*
X38202381Y-22499520D02*
X38045238Y-22447140D01*
X38045238Y-22447140D02*
X37940476Y-22342378D01*
X37940476Y-22342378D02*
X37888095Y-22237616D01*
X37888095Y-22237616D02*
X37835714Y-22028092D01*
X37835714Y-22028092D02*
X37835714Y-21870949D01*
X37835714Y-21870949D02*
X37888095Y-21661425D01*
X37888095Y-21661425D02*
X37940476Y-21556663D01*
X37940476Y-21556663D02*
X38045238Y-21451901D01*
X38045238Y-21451901D02*
X38202381Y-21399520D01*
X38202381Y-21399520D02*
X38307143Y-21399520D01*
X38307143Y-21399520D02*
X38464286Y-21451901D01*
X38464286Y-21451901D02*
X38516667Y-21504282D01*
X39564286Y-22499520D02*
X38935714Y-22499520D01*
X39250000Y-22499520D02*
X39250000Y-21399520D01*
X39250000Y-21399520D02*
X39145238Y-21556663D01*
X39145238Y-21556663D02*
X39040476Y-21661425D01*
X39040476Y-21661425D02*
X38935714Y-21713806D01*
X41056667Y-22394759D02*
X41004286Y-22447140D01*
X41004286Y-22447140D02*
X40847143Y-22499520D01*
X40847143Y-22499520D02*
X40742381Y-22499520D01*
X40742381Y-22499520D02*
X40585238Y-22447140D01*
X40585238Y-22447140D02*
X40480476Y-22342378D01*
X40480476Y-22342378D02*
X40428095Y-22237616D01*
X40428095Y-22237616D02*
X40375714Y-22028092D01*
X40375714Y-22028092D02*
X40375714Y-21870949D01*
X40375714Y-21870949D02*
X40428095Y-21661425D01*
X40428095Y-21661425D02*
X40480476Y-21556663D01*
X40480476Y-21556663D02*
X40585238Y-21451901D01*
X40585238Y-21451901D02*
X40742381Y-21399520D01*
X40742381Y-21399520D02*
X40847143Y-21399520D01*
X40847143Y-21399520D02*
X41004286Y-21451901D01*
X41004286Y-21451901D02*
X41056667Y-21504282D01*
X41475714Y-21504282D02*
X41528095Y-21451901D01*
X41528095Y-21451901D02*
X41632857Y-21399520D01*
X41632857Y-21399520D02*
X41894762Y-21399520D01*
X41894762Y-21399520D02*
X41999524Y-21451901D01*
X41999524Y-21451901D02*
X42051905Y-21504282D01*
X42051905Y-21504282D02*
X42104286Y-21609044D01*
X42104286Y-21609044D02*
X42104286Y-21713806D01*
X42104286Y-21713806D02*
X42051905Y-21870949D01*
X42051905Y-21870949D02*
X41423333Y-22499520D01*
X41423333Y-22499520D02*
X42104286Y-22499520D01*
X43596667Y-22394759D02*
X43544286Y-22447140D01*
X43544286Y-22447140D02*
X43387143Y-22499520D01*
X43387143Y-22499520D02*
X43282381Y-22499520D01*
X43282381Y-22499520D02*
X43125238Y-22447140D01*
X43125238Y-22447140D02*
X43020476Y-22342378D01*
X43020476Y-22342378D02*
X42968095Y-22237616D01*
X42968095Y-22237616D02*
X42915714Y-22028092D01*
X42915714Y-22028092D02*
X42915714Y-21870949D01*
X42915714Y-21870949D02*
X42968095Y-21661425D01*
X42968095Y-21661425D02*
X43020476Y-21556663D01*
X43020476Y-21556663D02*
X43125238Y-21451901D01*
X43125238Y-21451901D02*
X43282381Y-21399520D01*
X43282381Y-21399520D02*
X43387143Y-21399520D01*
X43387143Y-21399520D02*
X43544286Y-21451901D01*
X43544286Y-21451901D02*
X43596667Y-21504282D01*
X43963333Y-21399520D02*
X44644286Y-21399520D01*
X44644286Y-21399520D02*
X44277619Y-21818568D01*
X44277619Y-21818568D02*
X44434762Y-21818568D01*
X44434762Y-21818568D02*
X44539524Y-21870949D01*
X44539524Y-21870949D02*
X44591905Y-21923330D01*
X44591905Y-21923330D02*
X44644286Y-22028092D01*
X44644286Y-22028092D02*
X44644286Y-22289997D01*
X44644286Y-22289997D02*
X44591905Y-22394759D01*
X44591905Y-22394759D02*
X44539524Y-22447140D01*
X44539524Y-22447140D02*
X44434762Y-22499520D01*
X44434762Y-22499520D02*
X44120476Y-22499520D01*
X44120476Y-22499520D02*
X44015714Y-22447140D01*
X44015714Y-22447140D02*
X43963333Y-22394759D01*
%LPC*%
D12*
G04 #@! TO.C,SW1*
X39715000Y-36985000D03*
X46065000Y-34445000D03*
D13*
X43525000Y-39525000D03*
D14*
X38445000Y-39525000D03*
X48605000Y-39525000D03*
G04 #@! TD*
D12*
G04 #@! TO.C,SW2*
X58765000Y-36985000D03*
X65115000Y-34445000D03*
D13*
X62575000Y-39525000D03*
D14*
X57495000Y-39525000D03*
X67655000Y-39525000D03*
G04 #@! TD*
D12*
G04 #@! TO.C,SW3*
X77815000Y-36985000D03*
X84165000Y-34445000D03*
D13*
X81625000Y-39525000D03*
D14*
X76545000Y-39525000D03*
X86705000Y-39525000D03*
G04 #@! TD*
D12*
G04 #@! TO.C,SW4*
X96865000Y-36985000D03*
X103215000Y-34445000D03*
D13*
X100675000Y-39525000D03*
D14*
X95595000Y-39525000D03*
X105755000Y-39525000D03*
G04 #@! TD*
D12*
G04 #@! TO.C,SW5*
X39715000Y-56035000D03*
X46065000Y-53495000D03*
D13*
X43525000Y-58575000D03*
D14*
X38445000Y-58575000D03*
X48605000Y-58575000D03*
G04 #@! TD*
D12*
G04 #@! TO.C,SW6*
X58765000Y-56035000D03*
X65115000Y-53495000D03*
D13*
X62575000Y-58575000D03*
D14*
X57495000Y-58575000D03*
X67655000Y-58575000D03*
G04 #@! TD*
D12*
G04 #@! TO.C,SW7*
X77815000Y-56035000D03*
X84165000Y-53495000D03*
D13*
X81625000Y-58575000D03*
D14*
X76545000Y-58575000D03*
X86705000Y-58575000D03*
G04 #@! TD*
D12*
G04 #@! TO.C,SW8*
X96865000Y-56035000D03*
X103215000Y-53495000D03*
D13*
X100675000Y-58575000D03*
D14*
X95595000Y-58575000D03*
X105755000Y-58575000D03*
G04 #@! TD*
D12*
G04 #@! TO.C,SW9*
X39715000Y-75085000D03*
X46065000Y-72545000D03*
D13*
X43525000Y-77625000D03*
D14*
X38445000Y-77625000D03*
X48605000Y-77625000D03*
G04 #@! TD*
D12*
G04 #@! TO.C,SW10*
X58765000Y-75085000D03*
X65115000Y-72545000D03*
D13*
X62575000Y-77625000D03*
D14*
X57495000Y-77625000D03*
X67655000Y-77625000D03*
G04 #@! TD*
D12*
G04 #@! TO.C,SW11*
X77815000Y-75085000D03*
X84165000Y-72545000D03*
D13*
X81625000Y-77625000D03*
D14*
X76545000Y-77625000D03*
X86705000Y-77625000D03*
G04 #@! TD*
D12*
G04 #@! TO.C,SW12*
X96865000Y-75085000D03*
X103215000Y-72545000D03*
D13*
X100675000Y-77625000D03*
D14*
X95595000Y-77625000D03*
X105755000Y-77625000D03*
G04 #@! TD*
D12*
G04 #@! TO.C,SW13*
X39715000Y-94135000D03*
X46065000Y-91595000D03*
D13*
X43525000Y-96675000D03*
D14*
X38445000Y-96675000D03*
X48605000Y-96675000D03*
G04 #@! TD*
D12*
G04 #@! TO.C,SW14*
X58765000Y-94135000D03*
X65115000Y-91595000D03*
D13*
X62575000Y-96675000D03*
D14*
X57495000Y-96675000D03*
X67655000Y-96675000D03*
G04 #@! TD*
D12*
G04 #@! TO.C,SW15*
X77815000Y-94135000D03*
X84165000Y-91595000D03*
D13*
X81625000Y-96675000D03*
D14*
X76545000Y-96675000D03*
X86705000Y-96675000D03*
G04 #@! TD*
D12*
G04 #@! TO.C,SW16*
X96865000Y-94135000D03*
X103215000Y-91595000D03*
D13*
X100675000Y-96675000D03*
D14*
X95595000Y-96675000D03*
X105755000Y-96675000D03*
G04 #@! TD*
D15*
G04 #@! TO.C,J4*
X33620000Y-25000000D03*
G04 #@! TD*
G04 #@! TO.C,J3*
X31080000Y-25000000D03*
G04 #@! TD*
G04 #@! TO.C,J2*
X28540000Y-25000000D03*
G04 #@! TD*
G04 #@! TO.C,J1*
X26000000Y-25000000D03*
G04 #@! TD*
G04 #@! TO.C,J5*
X36160000Y-25000000D03*
G04 #@! TD*
G04 #@! TO.C,J6*
X38700000Y-25000000D03*
G04 #@! TD*
G04 #@! TO.C,J7*
X41240000Y-25000000D03*
G04 #@! TD*
G04 #@! TO.C,J8*
X43780000Y-25000000D03*
G04 #@! TD*
G04 #@! TO.C,*
X23000000Y-23000000D03*
G04 #@! TD*
G04 #@! TO.C,*
X113200000Y-23000000D03*
G04 #@! TD*
G04 #@! TO.C,*
X23000000Y-109200000D03*
G04 #@! TD*
G04 #@! TO.C,*
X113200000Y-109200000D03*
G04 #@! TD*
%LPD*%
M02*
