G04 #@! TF.GenerationSoftware,KiCad,Pcbnew,10.0.6*
G04 #@! TF.CreationDate,2026-09-13T11:19:04+02:00*
G04 #@! TF.ProjectId,keypad4x4,6b657970-6164-4347-9834-2e6b69636164,rev?*
G04 #@! TF.SameCoordinates,Original*
G04 #@! TF.FileFunction,Soldermask,Top*
G04 #@! TF.FilePolarity,Negative*
%FSLAX46Y46*%
G04 Gerber Fmt 4.6, Leading zero omitted, Abs format (unit mm)*
G04 Created by KiCad (PCBNEW 10.0.6) date 2026-09-13 11:19:04*
%MOMM*%
%LPD*%
G01*
G04 APERTURE LIST*
%ADD10C,2.500000*%
%ADD11C,4.000000*%
%ADD12C,1.750000*%
%ADD13C,2.200000*%
G04 APERTURE END LIST*
D10*
G04 #@! TO.C,SW1*
X39715000Y-36985000D03*
X46065000Y-34445000D03*
D11*
X43525000Y-39525000D03*
D12*
X38445000Y-39525000D03*
X48605000Y-39525000D03*
G04 #@! TD*
D10*
G04 #@! TO.C,SW2*
X58765000Y-36985000D03*
X65115000Y-34445000D03*
D11*
X62575000Y-39525000D03*
D12*
X57495000Y-39525000D03*
X67655000Y-39525000D03*
G04 #@! TD*
D10*
G04 #@! TO.C,SW3*
X77815000Y-36985000D03*
X84165000Y-34445000D03*
D11*
X81625000Y-39525000D03*
D12*
X76545000Y-39525000D03*
X86705000Y-39525000D03*
G04 #@! TD*
D10*
G04 #@! TO.C,SW4*
X96865000Y-36985000D03*
X103215000Y-34445000D03*
D11*
X100675000Y-39525000D03*
D12*
X95595000Y-39525000D03*
X105755000Y-39525000D03*
G04 #@! TD*
D10*
G04 #@! TO.C,SW5*
X39715000Y-56035000D03*
X46065000Y-53495000D03*
D11*
X43525000Y-58575000D03*
D12*
X38445000Y-58575000D03*
X48605000Y-58575000D03*
G04 #@! TD*
D10*
G04 #@! TO.C,SW6*
X58765000Y-56035000D03*
X65115000Y-53495000D03*
D11*
X62575000Y-58575000D03*
D12*
X57495000Y-58575000D03*
X67655000Y-58575000D03*
G04 #@! TD*
D10*
G04 #@! TO.C,SW7*
X77815000Y-56035000D03*
X84165000Y-53495000D03*
D11*
X81625000Y-58575000D03*
D12*
X76545000Y-58575000D03*
X86705000Y-58575000D03*
G04 #@! TD*
D10*
G04 #@! TO.C,SW8*
X96865000Y-56035000D03*
X103215000Y-53495000D03*
D11*
X100675000Y-58575000D03*
D12*
X95595000Y-58575000D03*
X105755000Y-58575000D03*
G04 #@! TD*
D10*
G04 #@! TO.C,SW9*
X39715000Y-75085000D03*
X46065000Y-72545000D03*
D11*
X43525000Y-77625000D03*
D12*
X38445000Y-77625000D03*
X48605000Y-77625000D03*
G04 #@! TD*
D10*
G04 #@! TO.C,SW10*
X58765000Y-75085000D03*
X65115000Y-72545000D03*
D11*
X62575000Y-77625000D03*
D12*
X57495000Y-77625000D03*
X67655000Y-77625000D03*
G04 #@! TD*
D10*
G04 #@! TO.C,SW11*
X77815000Y-75085000D03*
X84165000Y-72545000D03*
D11*
X81625000Y-77625000D03*
D12*
X76545000Y-77625000D03*
X86705000Y-77625000D03*
G04 #@! TD*
D10*
G04 #@! TO.C,SW12*
X96865000Y-75085000D03*
X103215000Y-72545000D03*
D11*
X100675000Y-77625000D03*
D12*
X95595000Y-77625000D03*
X105755000Y-77625000D03*
G04 #@! TD*
D10*
G04 #@! TO.C,SW13*
X39715000Y-94135000D03*
X46065000Y-91595000D03*
D11*
X43525000Y-96675000D03*
D12*
X38445000Y-96675000D03*
X48605000Y-96675000D03*
G04 #@! TD*
D10*
G04 #@! TO.C,SW14*
X58765000Y-94135000D03*
X65115000Y-91595000D03*
D11*
X62575000Y-96675000D03*
D12*
X57495000Y-96675000D03*
X67655000Y-96675000D03*
G04 #@! TD*
D10*
G04 #@! TO.C,SW15*
X77815000Y-94135000D03*
X84165000Y-91595000D03*
D11*
X81625000Y-96675000D03*
D12*
X76545000Y-96675000D03*
X86705000Y-96675000D03*
G04 #@! TD*
D10*
G04 #@! TO.C,SW16*
X96865000Y-94135000D03*
X103215000Y-91595000D03*
D11*
X100675000Y-96675000D03*
D12*
X95595000Y-96675000D03*
X105755000Y-96675000D03*
G04 #@! TD*
D13*
G04 #@! TO.C,J4*
X33620000Y-25000000D03*
G04 #@! TD*
G04 #@! TO.C,J3*
X31080000Y-25000000D03*
G04 #@! TD*
G04 #@! TO.C,J2*
X28540000Y-25000000D03*
G04 #@! TD*
G04 #@! TO.C,J1*
X26000000Y-25000000D03*
G04 #@! TD*
G04 #@! TO.C,J5*
X36160000Y-25000000D03*
G04 #@! TD*
G04 #@! TO.C,J6*
X38700000Y-25000000D03*
G04 #@! TD*
G04 #@! TO.C,J7*
X41240000Y-25000000D03*
G04 #@! TD*
G04 #@! TO.C,J8*
X43780000Y-25000000D03*
G04 #@! TD*
G04 #@! TO.C,*
X23000000Y-23000000D03*
G04 #@! TD*
G04 #@! TO.C,*
X113200000Y-23000000D03*
G04 #@! TD*
G04 #@! TO.C,*
X23000000Y-109200000D03*
G04 #@! TD*
G04 #@! TO.C,*
X113200000Y-109200000D03*
G04 #@! TD*
M02*
